<svg width="221" height="222" viewBox="0 0 221 222" fill="none" xmlns="http://www.w3.org/2000/svg">
<path d="M76.627 139.683V96.014L119.486 90.8804V138.935L76.627 139.683ZM83.2597 101.929V132.905L112.855 132.39V98.3851L83.2597 101.931V101.929Z" fill="#525252"/>
<path d="M117.694 94.534C112.519 94.534 107.291 93.0792 102.508 90.1287C91.4082 83.2818 86.3055 70.7042 89.5059 58.0855C90.6266 53.6704 94.0356 40.2371 107.317 37.3629C123.436 33.8739 134.647 43.2543 139.765 53.1985C146.049 65.4081 144.909 79.5207 137.056 86.7532C136.844 86.9471 136.633 87.1389 136.421 87.3249C130.99 92.1003 124.387 94.534 117.696 94.534H117.694ZM113.953 43.3012C112.25 43.3012 110.5 43.4912 108.712 43.8769C102.306 45.2631 98.3626 50.1539 95.932 59.734C93.4625 69.4629 97.4055 79.1663 105.978 84.4527C112.694 88.5956 123.071 90.2089 132.051 82.3127C132.226 82.158 132.4 82.0014 132.573 81.8428C138.167 76.6915 138.726 65.6919 133.873 56.2607C129.575 47.9102 122.35 43.3032 113.953 43.3032V43.3012Z" fill="#525252"/>
<path d="M79.1523 185.379L99.5613 134.033L144.371 178.074L79.1523 185.379ZM102.031 145.782L89.4143 177.526L129.735 173.011L102.031 145.782Z" fill="#525252"/>
</svg>
