<svg width="221" height="221" viewBox="0 0 221 221" fill="none" xmlns="http://www.w3.org/2000/svg">
<path d="M59.5491 174.218C58.6779 174.218 57.8106 173.959 57.068 173.45C55.8108 172.588 55.0916 171.134 55.1676 169.61L61.202 50.9454C61.3209 48.6123 63.2466 46.7821 65.5816 46.7821H155.419C157.752 46.7821 159.676 48.6084 159.799 50.9376L165.833 165.552C165.919 167.187 165.087 168.735 163.676 169.563C162.263 170.392 160.506 170.366 159.121 169.495L122.596 146.531L61.3365 173.84C60.7654 174.095 60.1573 174.22 59.5511 174.22L59.5491 174.218ZM69.7507 55.553L64.2913 162.917L121.162 137.565C122.499 136.971 124.043 137.08 125.282 137.857L156.63 157.567L151.26 55.5511H69.7507V55.553Z" fill="white"/>
</svg>
