<svg width="222" height="222" viewBox="0 0 222 222" fill="none" xmlns="http://www.w3.org/2000/svg">
<path d="M170.298 162.068H50.6357C49.3494 162.068 48.1257 161.518 47.2701 160.557C46.4164 159.595 46.0131 158.315 46.1638 157.038L58.1854 54.9077C58.8942 48.8813 63.8086 44.2802 69.8703 43.9689L159.374 39.3795C161.786 39.2562 163.862 41.0535 164.089 43.4559L174.781 157.144C174.901 158.407 174.482 159.66 173.628 160.598C172.774 161.536 171.566 162.07 170.298 162.07V162.068ZM55.7008 153.062H165.352L155.525 48.5954L70.3304 52.9635C68.6701 53.0497 67.323 54.3086 67.1292 55.9591L55.7008 153.06V153.062Z" fill="#FF5A5F"/>
<path d="M61.3471 73.5021L60.7734 64.5133L118.219 60.8441C118.315 60.8383 118.411 60.8344 118.506 60.8344H164.049V69.8408H118.649L61.3471 73.5021Z" fill="#FF5A5F"/>
<path d="M57.0384 109.939L56.5059 100.948L122.91 97.0127C123.134 96.999 123.359 97.0029 123.582 97.0225L167.175 100.958L166.364 109.927L123.106 106.021L57.0384 109.937V109.939Z" fill="#FF5A5F"/>
<path d="M122.971 64.7631L114.039 65.9169L118.711 102.085L127.643 100.931L122.971 64.7631Z" fill="#FF5A5F"/>
<path d="M79.5875 182.626H61.6432C60.3804 182.626 59.1763 182.096 58.3226 181.166C57.469 180.236 57.0461 178.989 57.1557 177.732L58.9511 157.173L67.9242 157.957L66.5576 173.62H76.2669L81.6355 156.238L90.2405 158.895L83.893 179.453C83.3095 181.34 81.565 182.626 79.5895 182.626H79.5875Z" fill="#FF5A5F"/>
<path d="M161.895 180.704H144.116C142.087 180.704 140.309 179.349 139.773 177.393L134.406 157.847L143.092 155.462L147.548 171.695H156.981L155.781 157.955L164.754 157.172L166.383 175.807C166.493 177.064 166.07 178.311 165.216 179.241C164.362 180.171 163.158 180.702 161.895 180.702V180.704Z" fill="#FF5A5F"/>
<path d="M59.3753 94.5672H41.897C40.5186 94.5672 39.2166 93.9368 38.363 92.854C37.5093 91.7713 37.198 90.3597 37.5172 89.0185L41.8579 70.8021L50.6195 72.8912L47.6004 85.5589H59.3773V94.5653L59.3753 94.5672Z" fill="#FF5A5F"/>
<path d="M180.103 92.6387H161.896V83.6323H174.317L170.431 68.2803L179.161 66.0698L184.467 87.0312C184.808 88.3783 184.508 89.8056 183.655 90.902C182.801 91.9984 181.489 92.6387 180.101 92.6387H180.103Z" fill="#FF5A5F"/>
</svg>
