<svg width="222" height="222" viewBox="0 0 222 222" fill="none" xmlns="http://www.w3.org/2000/svg">
<path d="M130.551 158.254C117.38 158.254 105.685 152.02 96.5184 139.813C91.7627 133.479 87.559 131.991 79.8625 133.916C64.5183 137.753 44.6807 129.575 35.6508 115.681C30.6033 107.916 29.9357 98.0093 33.8613 89.1792C37.5617 80.8561 44.8178 75.0841 53.272 73.739C59.8976 72.6857 66.4625 72.3059 73.4151 71.9064C75.6608 71.7772 77.9613 71.6441 80.2834 71.4855L81.6128 63.7419L188.54 70.8648L188.995 73.4356C192.2 91.5913 190.8 107.664 184.836 121.211C178.502 135.595 167.317 146.429 151.589 153.409C144.288 156.649 137.229 158.252 130.549 158.252L130.551 158.254ZM85.2937 126.497C91.9193 126.497 97.0902 129.479 101.846 135.813C108.062 144.091 115.404 149.177 123.669 150.926C131.348 152.551 139.833 151.339 148.887 147.319C175.933 135.315 187.935 110.46 182.857 77.1634L87.1616 70.7885L85.9672 77.7391L83.3808 77.9388C80.1209 78.1913 76.906 78.3754 73.7969 78.5555C67.0166 78.9451 60.6123 79.3152 54.3176 80.3157C48.0072 81.3201 42.7698 85.5355 39.9484 91.8811C36.943 98.6437 37.4227 106.182 41.2368 112.048C47.5021 121.686 60.4263 128.2 71.8566 128.2C74.0631 128.2 76.211 127.958 78.2472 127.449C80.7768 126.816 83.1146 126.493 85.2937 126.493V126.497ZM87.9212 121.152L83.7979 120.394C81.2134 119.918 78.5526 119.531 75.978 119.157C70.0416 118.291 63.9035 117.399 58.1414 115.36C52.6964 113.434 49.043 109.579 48.1208 104.78C47.1497 99.7245 49.2701 94.4753 53.9417 90.3794C61.5012 83.7499 70.6466 76.95 83.6354 80.1649L86.0456 80.7621L87.9212 121.152ZM77.1958 86.0171C70.5291 86.0171 64.8472 89.6765 58.3333 95.3877C55.4865 97.884 54.1472 100.85 54.6622 103.521C55.134 105.972 57.1585 107.946 60.3636 109.079C65.509 110.898 71.0616 111.707 76.9373 112.563C78.2354 112.752 79.5531 112.944 80.8806 113.15L79.6275 86.1757C78.8013 86.068 77.9907 86.0171 77.1958 86.0171Z" fill="#525252"/>
<path d="M133.908 142.632C131.274 142.632 128.848 142.474 126.716 142.336C125.369 142.248 124.097 142.166 122.977 142.135C116.192 141.941 108.913 137.428 101.342 128.719C95.9711 122.542 92.4273 116.492 92.2785 116.237L91.8008 115.417L92.9031 75.9377L180.635 82.9275L179.445 103.989L179.278 104.447C167.039 138.323 147.666 142.634 133.908 142.634V142.632ZM98.5125 113.682C102.581 120.351 113.61 135.202 123.167 135.474C124.408 135.509 125.739 135.595 127.149 135.687C140.23 136.541 159.964 137.822 172.849 102.636L173.616 89.0499L99.3662 83.1331L98.5125 113.682Z" fill="#525252"/>
</svg>
