<svg width="127" height="135" viewBox="0 0 127 135" fill="none" xmlns="http://www.w3.org/2000/svg">
<path d="M123.036 11.5634H10.8465L1.22191 95.5873C0.0816922 105.565 3.37177 115.466 10.254 122.751C16.6509 129.522 25.4531 133.299 34.6742 133.299C35.3759 133.299 36.0815 133.277 36.787 133.232L97.5208 129.43C113.168 128.451 125.422 115.35 125.422 99.4874L123.036 11.5634ZM97.0004 121.07L36.2666 124.87C28.7451 125.336 21.4827 122.464 16.304 116.983C11.1272 111.503 8.64991 104.053 9.50946 96.5467L13.1894 64.4153L14.1503 56.0355L18.2823 19.9433H114.92L115.901 56.0355L116.127 64.4153L117.084 99.6049C117.084 110.935 108.262 120.365 97.0024 121.07H97.0004Z" fill="white" stroke="white" stroke-width="2" stroke-miterlimit="10"/>
<path d="M57.1781 0.195801H48.8359V33.9502H57.1781V0.195801Z" fill="white"/>
<path d="M57.3726 34.148H48.6406V0H57.3726V34.146V34.148ZM49.0304 33.7564H56.9827V0.391583H49.0304V33.7544V33.7564Z" fill="white"/>
<path d="M85.7523 0.195801H77.4102V33.9502H85.7523V0.195801Z" fill="white"/>
<path d="M85.9448 34.148H77.2129V0H85.9448V34.146V34.148ZM77.6027 33.7564H85.555V0.391583H77.6027V33.7544V33.7564Z" fill="white"/>
<path d="M121.251 56.0336H9.4707V64.4134H121.251V56.0336Z" fill="white"/>
<path d="M121.446 64.6092H9.27539V55.8378H121.446V64.6092ZM9.66521 64.2176H121.056V56.2294H9.66521V64.2176Z" fill="white"/>
</svg>
