<svg width="222" height="222" viewBox="0 0 222 222" fill="none" xmlns="http://www.w3.org/2000/svg">
<path d="M27.7246 166.577L34.313 62.4105L141.859 60.1707L178.079 89.8037L194.278 156.737L27.7246 166.577ZM40.5764 68.9421L34.8495 159.482L185.928 150.556L172.131 93.5433L139.543 66.8824L40.5764 68.9421Z" fill="#525252"/>
<path d="M172.65 93.9739L144.682 71.0898L152.11 55.5342L172.648 55.4226V93.9739H172.65ZM152.948 69.2455L165.99 79.9161V62.1206L156.325 62.1735L152.948 69.2455Z" fill="#525252"/>
<path d="M100.103 147.731C91.6973 147.731 83.9792 144.798 78.084 140.727C77.5925 140.396 72.8172 137.083 68.7134 131.127C63.0237 122.867 61.2811 113.41 63.6737 103.779C65.8979 94.8277 72.2063 86.301 80.1398 81.5296C93.526 73.4786 110.67 75.0939 122.801 85.5511C131.887 93.3847 136.612 105.455 135.437 117.843C134.672 125.912 130.307 134.004 124.044 138.959C116.075 145.266 107.801 147.729 100.103 147.729V147.731ZM98.5265 83.1037C93.3479 83.1037 88.1848 84.4645 83.572 87.2389C77.197 91.0744 71.9224 98.1973 70.1387 105.385C65.4867 124.114 81.6395 135.092 81.804 135.2L81.8549 135.235C84.5588 137.103 91.3978 141.113 100.169 141.115C106.092 141.115 112.898 139.288 119.909 133.737C124.721 129.927 128.212 123.443 128.804 117.216C129.775 106.975 125.904 97.0245 118.448 90.5986C112.704 85.6471 105.602 83.1037 98.5246 83.1037H98.5265Z" fill="#525252"/>
<path d="M89.7452 119.411C84.4157 119.411 80.1964 115.901 78.9101 110.328C77.4612 104.049 80.1671 98.5555 86.3286 95.2565C90.4951 93.0283 95.4603 93.4454 98.9826 96.3196C101.125 98.068 103.519 101.34 102.765 106.998C101.677 115.166 95.5543 119.151 90.3247 119.398C90.1309 119.407 89.9351 119.411 89.7432 119.411H89.7452ZM91.938 100.498C91.1138 100.498 90.266 100.707 89.475 101.13C84.8093 103.628 84.917 106.722 85.4025 108.831C86.2523 112.517 88.9189 112.795 90.0114 112.743C92.5646 112.623 95.5798 110.497 96.1632 106.117C96.5391 103.288 95.5484 102.115 94.7692 101.479C93.9723 100.827 92.9738 100.496 91.9361 100.496L91.938 100.498Z" fill="#525252"/>
<path d="M93.6958 112.205L87.0664 112.872L90.3748 145.785L97.0042 145.118L93.6958 112.205Z" fill="#525252"/>
<path d="M97.1626 102.442L95.3496 108.854L132.806 119.446L134.619 113.034L97.1626 102.442Z" fill="#525252"/>
<path d="M87.7657 82.9399L81.2773 84.4546L84.981 100.32L91.4693 98.8052L87.7657 82.9399Z" fill="#525252"/>
</svg>
