<svg width="221" height="221" viewBox="0 0 221 221" fill="none" xmlns="http://www.w3.org/2000/svg">
<path d="M188.319 148.266H32.6802C30.2048 148.266 28.1973 146.258 28.1973 143.783V102.557C28.1973 100.082 30.2048 98.0745 32.6802 98.0745H39.7963L42.7122 57.432C42.8798 55.0872 44.8328 53.2707 47.1834 53.2707H118.875C120.438 53.2707 121.888 54.0835 122.701 55.4186L144.966 91.8998L182.86 98.1349C184.78 98.4507 186.277 99.969 186.565 101.893L192.75 143.118C192.943 144.408 192.564 145.72 191.713 146.708C190.861 147.697 189.621 148.266 188.315 148.266H188.319ZM37.1631 139.3H183.113L178.184 106.45L141.483 100.411C140.194 100.199 139.064 99.4369 138.383 98.324L116.359 62.2365H51.3564L48.4406 102.879C48.2729 105.224 46.3199 107.04 43.9693 107.04H37.1631V139.3Z" fill="#525252"/>
<path d="M141.906 91.5261L43.6621 98.0859L44.2594 107.032L142.503 100.472L141.906 91.5261Z" fill="#525252"/>
<path d="M104.553 57.8123L95.6016 58.3284L97.9956 99.8492L106.947 99.3331L104.553 57.8123Z" fill="#525252"/>
<path d="M62.4386 167.731C62.3937 167.731 62.3509 167.731 62.306 167.731C54.572 167.702 48.6019 165.349 44.5634 160.734C38.2639 153.536 39.4685 143.623 39.5231 143.204L48.4148 144.36L48.4187 144.334C48.4109 144.399 47.7073 150.761 51.3482 154.871C53.6189 157.436 57.3163 158.746 62.3392 158.763C62.3723 158.763 62.4054 158.763 62.4366 158.763C67.1125 158.763 70.6111 157.528 72.837 155.091C76.6319 150.934 76.051 144.295 76.0452 144.229V144.252L84.9642 143.307C85.0091 143.736 86.0031 153.889 79.5282 161.06C75.5326 165.486 69.7827 167.729 62.4405 167.729L62.4386 167.731Z" fill="#525252"/>
<path d="M150.841 167.731C150.796 167.731 150.753 167.731 150.708 167.731C142.974 167.702 137.004 165.349 132.966 160.736C126.666 153.538 127.871 143.625 127.925 143.206L136.817 144.362L136.821 144.336C136.813 144.401 136.11 150.762 139.751 154.873C142.021 157.438 145.719 158.748 150.742 158.765C150.775 158.765 150.808 158.765 150.839 158.765C155.517 158.765 159.015 157.53 161.239 155.093C165.034 150.936 164.453 144.297 164.448 144.231V144.254L173.367 143.309C173.411 143.738 174.405 153.891 167.931 161.061C163.935 165.488 158.185 167.731 150.843 167.731H150.841Z" fill="#525252"/>
</svg>
