<svg width="222" height="222" viewBox="0 0 222 222" fill="none" xmlns="http://www.w3.org/2000/svg">
<path d="M147.504 200.686H116.776C114.552 200.686 112.677 199.028 112.404 196.819L111.004 185.436L119.749 184.359L120.673 191.876H147.504C153.156 191.876 159.954 189.172 165.243 184.821C170.682 180.345 173.801 174.867 173.801 169.792V146.84L157.769 152.921L157.352 168.447C157.297 170.499 155.833 172.24 153.82 172.647L130.188 177.422C128.937 177.675 127.639 177.373 126.629 176.594C125.618 175.815 124.994 174.636 124.919 173.363L121.515 115.717C121.44 114.473 121.898 113.257 122.772 112.369C123.645 111.48 124.851 111.006 126.098 111.055C126.333 111.065 131.938 111.327 137.707 113.868C141.268 115.437 144.191 117.551 146.398 120.149C147.901 121.921 149.055 123.895 149.851 126.052L154.699 123.662L154.351 61.1124L130.519 49.128L72.5236 64.758L68.4864 128.294L72.1007 128.236C72.7606 126.223 73.8315 123.591 75.4997 120.915C80.1517 113.459 87.1884 109.097 95.8502 108.298C97.07 108.186 98.28 108.586 99.1924 109.402C100.105 110.219 100.635 111.378 100.659 112.604L101.953 182.305C101.98 183.805 101.242 185.217 99.9951 186.051C98.7479 186.885 97.162 187.026 95.7856 186.425C95.4978 186.299 88.6334 183.298 80.9995 179.492C66.6303 172.33 62.7595 168.952 61.0992 167.035C60.4453 166.282 60.0674 165.326 60.0263 164.328L59.4781 150.765L47.3605 142.746C46.1701 141.959 45.4359 140.643 45.3889 139.217L43.0531 68.4996C43.0277 67.7203 43.2098 66.9469 43.5798 66.2597C43.9068 65.6528 51.7795 51.2621 67.0669 38.5513C76.1242 31.0212 85.9158 25.6448 96.1733 22.5767C109.047 18.7235 122.619 18.5238 136.516 21.9795C156.011 26.8273 179.978 46.1794 180.988 47.0017C182.018 47.8377 182.615 49.0947 182.615 50.4202V169.79C182.615 177.51 178.325 185.467 170.844 191.623C163.948 197.297 155.224 200.686 147.508 200.686H147.504ZM68.7566 162.219C72.6881 165.493 83.5506 171.104 93.0132 175.507L91.9481 118.097C88.3397 119.397 85.3813 121.823 83.1199 125.35C80.6235 129.242 79.8776 133.111 79.8365 133.326C79.4977 135.435 77.7004 136.958 75.5643 136.993L63.856 137.181C62.6264 137.205 61.4458 136.705 60.596 135.817C59.7483 134.928 59.3097 133.724 59.388 132.496L63.9284 61.0458C64.0478 59.1623 65.3557 57.5627 67.1785 57.0712L129.847 40.1823C130.893 39.9003 132.005 40.0139 132.972 40.4994L160.718 54.4515C162.198 55.1955 163.134 56.7071 163.144 58.3635L163.522 126.368C163.531 128.053 162.576 129.598 161.064 130.344L148.675 136.451C147.355 137.103 145.797 137.05 144.522 136.314C143.247 135.578 142.425 134.252 142.331 132.782C142.012 127.826 139.402 124.306 134.353 122.017C133.082 121.442 131.803 121.017 130.635 120.703L133.415 167.778L148.638 164.702L149.039 149.728C149.086 147.942 150.21 146.36 151.88 145.728L173.799 137.412V52.5622C168.201 48.2391 149.27 34.2341 134.384 30.5317C122.098 27.4754 110.143 27.6242 98.8537 30.9722C89.767 33.6663 81.0406 38.4358 72.9152 45.1475C61.0483 54.9508 53.8863 66.1364 51.8951 69.4707L54.1153 136.657L66.2152 144.664C67.3959 145.446 68.1281 146.746 68.1849 148.159L68.7547 162.219H68.7566Z" fill="#525252"/>
</svg>
