<svg width="113" height="138" viewBox="0 0 113 138" fill="none" xmlns="http://www.w3.org/2000/svg">
<path d="M102.157 129.653H22.666V137.485H102.157V129.653Z" fill="#525352"/>
<path d="M112.861 18.9037L90.5431 0L78.2454 18.5728L54.261 51.1153L22.065 83.7615C21.7968 84.0317 21.5795 84.3469 21.4189 84.6935L0.304782 130.356C-0.33154 131.732 0.0522112 133.365 1.23479 134.313C2.03558 134.955 3.06153 135.172 4.01503 134.959C4.47122 134.857 4.9098 134.659 5.29942 134.362L47.9702 101.79C48.2091 101.608 48.4225 101.393 48.6046 101.152L78.3531 61.6371L99.9528 33.8269L112.859 18.9056L112.861 18.9037ZM91.9449 9.83264L103.512 19.63L96.8358 27.3501L85.4936 19.5791L91.9449 9.8346V9.83264ZM57.425 57.3042L68.9199 63.2015L51.7079 86.064L40.5438 85.5608L35.2066 79.832L57.423 57.3042H57.425ZM19.8643 103.779C22.7444 104.94 26.1179 106.644 28.3147 108.498L11.8839 121.04L19.8643 103.779ZM33.6246 104.443C30.4704 101.357 25.8144 99.0939 22.6328 97.79L27.1674 87.9847L30.5722 84.5329L36.6378 91.043C37.2271 91.6754 38.0397 92.0513 38.9031 92.0885L46.9012 92.4488L43.6099 96.8188L33.6246 104.441V104.443ZM73.1294 57.6097C73.1196 57.6234 73.1098 57.6351 73.1 57.6488L72.9473 57.8524L61.7324 52.1001L81.7148 24.9869L86.8739 28.5229L92.6478 32.4798L73.1294 57.6097Z" fill="#535353"/>
</svg>
