<svg width="113" height="138" viewBox="0 0 113 138" fill="none" xmlns="http://www.w3.org/2000/svg">
<path d="M101.696 129.655H22.5625V137.487H101.696V129.655Z" fill="#F15C61"/>
<path d="M112.353 18.9037L90.1352 0L77.893 18.5728L54.0166 51.1153L21.9656 83.7615C21.6986 84.0317 21.4823 84.3469 21.3224 84.6935L0.303409 130.356C-0.330046 131.732 0.051976 133.365 1.22923 134.313C2.02641 134.955 3.04774 135.172 3.99695 134.959C4.45108 134.857 4.88768 134.659 5.27555 134.362L47.7541 101.79C47.9919 101.608 48.2043 101.393 48.3856 101.152L78.0002 61.6371L99.5026 33.8269L112.351 18.9056L112.353 18.9037ZM91.5308 9.83264L103.046 19.63L96.3996 27.3501L85.1085 19.5791L91.5308 9.8346V9.83264ZM57.1663 57.3042L68.6094 63.2015L51.4749 86.064L40.3612 85.5608L35.048 79.832L57.1643 57.3042H57.1663ZM19.7749 103.779C22.642 104.94 26.0003 106.644 28.1872 108.498L11.8304 121.04L19.7749 103.779ZM33.4731 104.443C30.3331 101.357 25.6982 99.0939 22.5309 97.79L27.045 87.9847L30.4345 84.5329L36.4728 91.043C37.0594 91.6754 37.8683 92.0513 38.7279 92.0885L46.6899 92.4488L43.4135 96.8208L33.4731 104.443ZM72.8 57.6097C72.7902 57.6234 72.7805 57.6351 72.7707 57.6488L72.6187 57.8524L61.4543 52.1001L81.3467 24.9869L86.4826 28.5229L92.2305 32.4798L72.8 57.6097Z" fill="#F15C61"/>
</svg>
