<svg width="221" height="222" viewBox="0 0 221 222" fill="none" xmlns="http://www.w3.org/2000/svg">
<path d="M103.094 124.739C96.9776 124.739 91.2687 122.092 87.273 117.357C82.9967 112.292 81.3887 105.674 82.8603 99.1996L88.3392 75.0879C88.7953 73.085 90.569 71.6635 92.6155 71.6635H119.727C122.142 71.6635 124.103 73.6234 124.113 76.0493L124.3 119.327C124.31 121.665 122.501 123.603 120.178 123.744L104.384 124.7C103.953 124.725 103.523 124.739 103.094 124.739ZM96.1122 80.4742L91.411 101.161C90.5612 104.905 91.4909 108.733 93.9623 111.66C96.4338 114.589 100.04 116.136 103.856 115.905L115.51 115.2L115.359 80.4722H96.1102L96.1122 80.4742Z" fill="#525252"/>
<path d="M123.031 144.846L81.303 143.452C68.7996 143.035 58.8553 132.864 58.6662 120.298L58.0523 79.6597C57.9353 71.8926 60.8083 64.5172 66.141 58.894C71.4737 53.2709 78.6678 50.0306 86.3979 49.7721L148.389 47.9043C150.611 47.8377 152.537 49.4549 152.86 51.6674L163.65 125.524C163.826 126.718 163.504 127.932 162.762 128.882C162.021 129.831 160.924 130.434 159.727 130.548L144.931 131.963C143.105 132.138 141.366 131.153 140.567 129.494L115.779 77.9857L123.674 74.1501L147.136 122.9L154.3 122.215L144.748 56.8265L86.6747 58.5749C81.2718 58.755 76.2295 61.0262 72.4912 64.9675C68.7528 68.9088 66.7394 74.0777 66.8212 79.5226L67.4352 120.161C67.5541 128.02 73.7737 134.381 81.5934 134.644L123.322 136.038L123.029 144.844L123.031 144.846Z" fill="#525252"/>
</svg>
