<svg width="222" height="222" viewBox="0 0 222 222" fill="none" xmlns="http://www.w3.org/2000/svg">
<path d="M186.146 173.598H35.3648C33.0604 173.598 31.1475 171.825 30.9713 169.526L23.0554 65.3082C22.9634 64.0845 23.3844 62.8784 24.2165 61.9797C25.0505 61.081 26.2214 60.57 27.447 60.57H203.91C205.208 60.57 206.439 61.1417 207.276 62.1344C208.114 63.127 208.47 64.4369 208.253 65.7154L190.488 169.935C190.128 172.052 188.294 173.6 186.146 173.6V173.598ZM39.4471 164.788H182.428L198.69 69.3787H32.2008L39.4471 164.788Z" fill="white"/>
<path d="M144.413 141.019C143.624 141.019 142.829 140.807 142.114 140.371L25.1484 68.7306L29.7495 61.2181L143.463 130.865L200.521 62.1598L207.299 67.7888L147.804 139.429C146.94 140.469 145.685 141.021 144.413 141.021V141.019Z" fill="white"/>
</svg>
