<svg width="222" height="222" viewBox="0 0 222 222" fill="none" xmlns="http://www.w3.org/2000/svg">
<path d="M37.3652 200.663L38.7084 187.519L62.5753 165.575L87.2196 143.864L116.665 134.955L114.64 112.104L127.698 82.5712L123.829 67.6558L112.755 22.9409L119.222 21.3394L130.288 66.0189L134.728 83.1448L121.428 113.228L123.778 139.762L90.5363 149.82L67.0041 170.55L45.0775 190.713L44.8425 193.019C46.5498 192.524 48.8073 191.746 51.7872 190.538C73.8764 181.598 119.055 157.546 128.661 152.396L127.418 116.382L139.768 90.4008L162.678 66.4693L159.537 46.43L143.369 32.799L147.662 27.7065L165.732 42.941L169.769 68.6954L145.323 94.2325L134.131 117.776L135.463 156.302L133.646 157.283C131.439 158.476 79.3037 186.589 54.2875 196.716C48.4118 199.094 44.1455 200.324 41.2419 200.469L37.3652 200.665V200.663Z" fill="#525252"/>
<path d="M171.695 145.776L150.285 79.4129L168.194 60.7051L184.635 139.666L171.695 145.776ZM157.845 81.1496L175.707 136.514L177.042 135.883L164.253 74.4555L157.845 81.1496Z" fill="#525252"/>
<path d="M94.6536 147.701L93.9311 145.31L91.4583 145.667L91.3584 144.962L91.6443 144.306L112.666 96.3646L119.157 82.9274L125.72 54.6963L133.869 83.0351L120.584 113.083L122.895 139.157L94.6575 147.697L94.6536 147.701ZM117.183 98.4968L98.3951 141.348L117.555 135.552L115.492 112.241L128.565 82.6729L126.231 74.5593L123.897 84.5995L117.185 98.4948L117.183 98.4968Z" fill="#525252"/>
</svg>
