<svg width="109" height="109" viewBox="0 0 109 109" fill="none" xmlns="http://www.w3.org/2000/svg">
<path fill-rule="evenodd" clip-rule="evenodd" d="M71.5001 64.5227C78.6187 64.5227 84.3809 70.2932 84.3809 77.4074C84.3809 84.5264 78.6187 90.2955 71.5001 90.2955C64.3811 90.2955 58.6133 84.5264 58.6133 77.4074C58.6133 70.2932 64.3811 64.5227 71.5001 64.5227Z" stroke="white" stroke-width="5" stroke-linecap="round" stroke-linejoin="round"/>
<path fill-rule="evenodd" clip-rule="evenodd" d="M42.8615 18.7003C49.9805 18.7003 55.7501 24.47 55.7501 31.5888C55.7501 38.7034 49.9805 44.4731 42.8615 44.4731C35.7427 44.4731 29.9746 38.7037 29.9746 31.5892C29.9746 24.4704 35.7427 18.7003 42.8615 18.7003Z" stroke="white" stroke-width="5" stroke-linecap="round" stroke-linejoin="round"/>
<path d="M16.6523 27.9883L30.1441 30.4081M56.2583 27.9878L96.8885 24.2222" stroke="white" stroke-width="5" stroke-linecap="round" stroke-linejoin="round"/>
<path d="M19.6816 66.6117L58.6121 77.407M84.3802 77.407H95.8347" stroke="white" stroke-width="5" stroke-linecap="round" stroke-linejoin="round"/>
</svg>
