<svg width="222" height="222" viewBox="0 0 222 222" fill="none" xmlns="http://www.w3.org/2000/svg">
<path d="M89.3884 199.776C88.6464 192.296 87.7458 179.795 87.4482 167.143C87.1564 154.767 87.969 142.702 88.8285 129.929C89.1574 125.04 89.4961 120.014 89.7663 114.965C88.8148 114.929 87.8789 114.896 86.9567 114.865C82.5612 114.714 78.4104 114.571 74.2694 114.068C70.8803 113.657 68.2351 111.998 66.8157 109.396C65.312 106.638 65.3923 103.112 67.0389 99.7243C68.4035 96.9128 69.8054 93.6587 69.8563 90.8295C70.1754 73.2475 70.1754 55.6086 70.1754 38.5493H76.8382C76.8382 55.638 76.8382 73.3082 76.5171 90.9509C76.4427 95.0743 74.7139 99.1702 73.032 102.636C72.3487 104.042 72.2136 105.379 72.6659 106.211C73.126 107.055 74.2283 107.354 75.0722 107.458C78.9273 107.926 82.9391 108.063 87.1878 108.21C89.1868 108.278 91.2563 108.349 93.4276 108.459L96.7443 108.623L96.5897 111.942C96.2979 118.18 95.8809 124.382 95.4756 130.381C94.6259 142.998 93.8231 154.916 94.107 166.99C94.4007 179.458 95.2876 191.764 96.0179 199.122L89.3884 199.78V199.776Z" fill="#525252"/>
<path d="M85.9324 103.341C84.5991 103.341 82.275 103.127 81.8795 100.519L81.858 100.341C79.9784 80.852 79.7102 65.686 79.3068 42.7275L79.2266 38.2322L85.8874 38.1127L85.9677 42.6101C86.3475 64.1843 86.604 78.8315 88.2036 96.6348C88.5129 96.627 88.8301 96.6211 89.1414 96.6133V35.7397H95.8042V102.824L92.8439 103.155C92.6735 103.174 92.4601 103.198 88.7753 103.282C87.8786 103.303 86.9936 103.321 86.3318 103.335C86.2144 103.337 86.0793 103.339 85.9324 103.339V103.341Z" fill="#525252"/>
<path d="M103.864 103.35C100.733 103.35 100.324 100.723 100.289 100.421C97.6297 80.7855 97.6395 59.7301 97.6474 41.1534V38.1715H104.31V41.1573C104.302 58.5925 104.294 78.2343 106.521 96.6367C106.865 96.6289 107.218 96.6211 107.564 96.6133V35.7397H114.227V102.824L111.267 103.155C111.096 103.174 110.883 103.198 107.198 103.282C106.303 103.303 105.416 103.321 104.757 103.335L103.944 103.348C103.919 103.348 103.893 103.348 103.868 103.348L103.864 103.35Z" fill="#525252"/>
<path d="M102.873 199.46C102.82 187.78 102.182 171.889 101.563 156.523C101.152 146.325 100.766 136.69 100.574 128.874L100.57 128.745L101.534 110.869L110.981 108.782C112.751 108.39 114.53 108.071 116.253 107.762L117.168 107.597C117.733 107.495 118.043 107.372 118.195 107.298C118.186 107.094 118.123 106.661 117.825 105.919L117.804 105.866C116.547 102.74 115.122 99.1957 115.118 95.5051C115.104 83.18 115.394 64.0159 115.627 48.6189C115.705 43.4011 115.779 38.5533 115.834 34.4456L122.495 34.5337C122.44 38.6453 122.368 43.499 122.287 48.7187C122.055 64.0923 121.765 83.227 121.78 95.4972C121.782 97.9035 122.902 100.688 123.985 103.38L124.007 103.435C125.123 106.213 125.144 108.609 124.065 110.559C123.022 112.447 121.101 113.657 118.354 114.154L117.432 114.321C115.697 114.632 114.06 114.928 112.418 115.29L107.912 116.284L107.235 128.844C107.427 136.586 107.811 146.145 108.218 156.259C108.839 171.684 109.479 187.633 109.532 199.433L102.869 199.464L102.873 199.46Z" fill="#525252"/>
<path d="M135.946 199.684L129.301 199.208L133.724 137.377C126.417 130.491 126.102 119.196 126.811 108.919C127.316 101.584 127.476 94.0583 127.631 86.7827C127.809 78.4322 127.991 69.7978 128.696 61.2945C130.139 43.8652 137.742 31.5617 151.292 24.7266L156.258 22.2224L152.025 197.556L145.366 197.395L149.317 33.6977C140.986 39.7614 136.396 49.0262 135.337 61.8428C134.65 70.1404 134.468 78.673 134.294 86.9217C134.137 94.2756 133.977 101.882 133.46 109.375C132.798 118.977 133.037 128.521 139.21 133.307L140.62 134.399L135.95 199.68L135.946 199.684Z" fill="#525252"/>
</svg>
