<svg width="222" height="222" viewBox="0 0 222 222" fill="none" xmlns="http://www.w3.org/2000/svg">
<path d="M65.7822 97.8996V79.3445L113.091 76.8521V93.4747L65.7822 97.8996ZM72.445 85.6646V90.5849L106.43 87.4072V83.8751L72.445 85.6646Z" fill="#525252"/>
<path d="M165.483 186.211L153.733 104.382L117.005 96.6523V35.4068L62.851 41.9658L59.1133 102.093L56.5778 164.277L49.9209 164.006L52.4623 101.715L56.5465 36.0196L123.668 27.8904V91.2465L159.666 98.8236L172.079 185.264L165.483 186.211Z" fill="#525252"/>
<path d="M91.5771 186.006L84.9378 185.469L90.0343 122.358L71.8159 114.577L73.4684 170.143L66.8095 170.34L64.8477 104.357L97.0612 118.113L91.5771 186.006Z" fill="#525252"/>
<path d="M107.255 194.109L100.592 194.027L101.518 118.871L121.618 113.827L124.774 159.658L118.127 160.116L115.519 122.227L108.116 124.083L107.255 194.109Z" fill="#525252"/>
<path d="M149.524 185.745L142.861 185.73L143.016 116.676L133.228 118.575L135.681 157.191L129.034 157.614L126.209 113.152L149.696 108.594L149.524 185.745Z" fill="#525252"/>
</svg>
