<svg width="188" height="217" viewBox="0 0 188 217" fill="none" xmlns="http://www.w3.org/2000/svg">
<path d="M102.844 128.41C114.587 129.495 127.555 127.677 138.763 119.511C161.593 102.879 154.446 69.1707 148.019 54.3953L141.077 48.1191M102.844 128.41C90.6671 127.285 79.8065 123.039 73.5898 119.511C64.4484 108.285 51.4399 82.4263 62.2323 58.7693M102.844 128.41C107.706 113.028 101.931 91.4207 97.1144 79.8926M62.2323 58.7693C42.2745 54.8983 26.2712 65.3331 18.8292 74.0086C7.25995 87.7379 -8.93699 120.531 18.8292 141.87C33.7362 153.327 45.0862 157.692 55.0791 157.763C68.3524 157.857 79.2316 150.374 92.8723 141.87C97.9468 138.707 101.089 133.964 102.844 128.41M62.2323 58.7693C63.8846 55.1475 66.0948 51.5773 68.9621 48.1191C90.558 22.0727 116.782 28.8981 127.194 35.5666L141.077 48.1191M62.2323 58.7693C72.9562 60.8493 84.8217 67.0596 97.1144 79.8926M141.077 48.1191L183.498 12.0307M141.077 48.1191L97.1144 79.8926M170.001 63.8097L183.498 12.0307L148.019 3.40088M55.0791 157.763V187.082M55.0791 187.082V216.401M55.0791 187.082H79.3745M55.0791 187.082H30.398" stroke="white" stroke-width="7"/>
</svg>
