<svg width="222" height="221" viewBox="0 0 222 221" fill="none" xmlns="http://www.w3.org/2000/svg">
<g clip-path="url(#clip0_3703_9670)">
<path d="M129.267 194.759L98.5179 163.168L73.4487 182.1L68.1232 175.112L92.3406 156.824L52.6831 116.082C52.6479 116.045 52.6126 116.008 52.5774 115.969C46.13 108.861 42.1084 101.131 40.9493 93.613C39.6316 85.0643 42.032 77.0224 47.896 70.3565L51.2107 66.5889C57.0336 59.9697 65.4409 56.0657 74.2789 55.8786C83.115 55.6934 91.6828 59.2388 97.7817 65.6065L109.658 78.0086L137.042 53.4734C143.397 47.7781 151.603 44.8526 160.145 45.2326C168.688 45.6147 176.598 49.2595 182.414 55.4966C188.331 61.8409 191.393 70.0972 191.037 78.7473C190.679 87.3974 186.947 95.375 180.527 101.215C180.427 101.304 180.325 101.39 180.218 101.47L105.59 157.828L135.595 188.655L129.267 194.757V194.759ZM59.0659 110.034L99.4126 151.484L174.726 94.609C179.311 90.3717 181.976 84.618 182.234 78.3867C182.495 72.0912 180.267 66.0821 175.959 61.4647C171.724 56.9252 165.968 54.2725 159.752 53.9938C153.533 53.7151 147.564 55.8454 142.937 59.9912L112.372 87.3779C110.6 88.9664 107.881 88.8612 106.236 87.144L91.4048 71.6584C86.9446 67.0001 80.9299 64.5092 74.4668 64.6476C68.0038 64.784 62.1007 67.5244 57.8422 72.366L54.5275 76.1336C50.3747 80.8543 48.7379 86.2883 49.662 92.2818C50.5568 98.0804 53.8089 104.218 59.0698 110.034H59.0659Z" fill="#FF5A5F"/>
</g>
<defs>
<clipPath id="clip0_3703_9670">
<rect width="222" height="221" fill="white"/>
</clipPath>
</defs>
</svg>
