<svg width="221" height="221" viewBox="0 0 221 221" fill="none" xmlns="http://www.w3.org/2000/svg">
<path d="M171.945 87.8301L93.71 147.178L50.787 102.881C39.4784 90.3581 35.6465 75.1161 46.1716 63.098L49.4694 59.3304C59.9341 47.3805 78.396 46.9907 89.3557 58.4865L104.12 73.972L134.549 46.5853C139.865 41.8003 146.525 39.4399 153.163 39.4399C160.64 39.4399 168.091 42.4337 173.57 48.3356C184.091 59.6657 183.362 77.4005 171.945 87.8301Z" fill="#FF5A5F"/>
<path d="M93.7121 151.564C92.5602 151.564 91.4161 151.111 90.5604 150.23L47.6374 105.933C47.6024 105.896 47.5673 105.859 47.5322 105.82C41.1138 98.7119 37.1104 90.9818 35.9565 83.4661C34.6448 74.9154 37.0344 66.8734 42.8719 60.2095L46.1698 56.4419C51.9683 49.8208 60.3377 45.9187 69.134 45.7316C77.9283 45.5503 86.4576 49.0918 92.529 55.4595L104.352 67.8616L131.614 43.3264C137.539 37.9917 145.192 35.0545 153.161 35.0545C162.098 35.0545 170.707 38.8084 176.782 45.3515C182.673 51.6939 185.721 59.9502 185.364 68.6003C185.01 77.2504 181.293 85.23 174.9 91.0675C174.8 91.1572 174.699 91.243 174.592 91.3229L96.357 150.671C95.5676 151.269 94.636 151.562 93.7082 151.562L93.7121 151.564ZM53.9915 99.8852L94.1545 141.335L169.126 84.4621C173.693 80.2247 176.344 74.471 176.601 68.2397C176.86 61.9442 174.642 55.9371 170.354 51.3197C165.932 46.5561 159.666 43.8254 153.161 43.8254C147.361 43.8254 141.794 45.9635 137.481 49.8442L107.052 77.2309C105.288 78.8194 102.58 78.7142 100.943 76.997L86.1788 61.5115C81.7388 56.8531 75.7492 54.3622 69.3172 54.5006C62.8833 54.637 57.0067 57.3774 52.7655 62.219L49.4676 65.9866C45.3317 70.7092 43.7022 76.1414 44.6222 82.1348C45.5129 87.9334 48.7504 94.0711 53.9876 99.8852H53.9915Z" fill="#FF5A5F"/>
<path d="M123.877 184.612L93.2646 153.021L68.3084 171.953L63.0068 164.965L91.0582 143.685C92.826 142.344 95.315 142.535 96.8587 144.128L130.175 178.51L123.875 184.612H123.877Z" fill="#FF5A5F"/>
</svg>
