<svg width="32" height="35" viewBox="0 0 32 35" fill="none" xmlns="http://www.w3.org/2000/svg">
<path d="M14.4288 0.688996L0.554688 11.7648L1.28108 15.1132L4.18665 16.3838L27.5038 18.0152L30.5547 16.0577L24.5256 7.45455L16.7532 1.37586C16.2652 0.917952 15.1171 0.139501 14.4288 0.688996Z" fill="#535353"/>
<path d="M2.44331 34.5H27.5038V26.2576V18.0152L4.18665 16.3838L2.44331 34.5Z" fill="#535353"/>
<path d="M27.5038 18.0152L30.5547 16.0577L24.5256 7.45455L16.7532 1.37586C16.2652 0.917952 15.1171 0.139501 14.4288 0.688996L0.554688 11.7648L1.28108 15.1132L4.18665 16.3838M27.5038 18.0152L4.18665 16.3838M27.5038 18.0152V26.2576V34.5H2.44331L4.18665 16.3838" stroke="white"/>
</svg>
