<svg width="222" height="222" viewBox="0 0 222 222" fill="none" xmlns="http://www.w3.org/2000/svg">
<path d="M130.437 90.9177H92.4629V99.7283H130.437V90.9177Z" fill="#525252"/>
<path d="M130.437 108.28H83.2979V117.091H130.437V108.28Z" fill="#525252"/>
<path d="M121.51 128.664H86.3164V137.475H121.51V128.664Z" fill="#525252"/>
<path d="M150.544 172.212H63.1895C60.7558 172.212 58.7842 170.241 58.7842 167.807V49.8798C58.7842 47.7163 60.3564 45.872 62.4925 45.5293L149.847 31.5185C151.121 31.3149 152.419 31.679 153.402 32.5151C154.385 33.3511 154.949 34.5768 154.949 35.867V167.807C154.949 170.241 152.977 172.212 150.544 172.212ZM67.5948 163.402H146.138V41.0359L67.5948 53.6331V163.402Z" fill="#525252"/>
<path d="M150.544 73.7429H122.638C121.332 73.7429 120.093 73.1633 119.255 72.1589C118.417 71.1545 118.07 69.8329 118.303 68.5466L123.793 38.4534L132.461 40.0335L127.919 64.9303H150.544V73.7409V73.7429Z" fill="#525252"/>
</svg>
