<svg width="222" height="222" viewBox="0 0 222 222" fill="none" xmlns="http://www.w3.org/2000/svg">
<path d="M107.566 182.158C106.34 182.158 105.166 181.659 104.316 180.772C103.65 180.077 87.8616 163.519 74.3696 141.596C66.3559 128.576 60.8502 116.373 57.9995 105.326C54.299 90.9745 55.0587 78.4614 60.257 68.1354C65.0362 58.6454 72.2883 51.0291 81.2301 46.1089C89.4906 41.5645 98.8925 39.4187 108.42 39.9062C117.322 40.3624 125.781 43.0996 132.878 47.826C140.469 52.8793 146.196 60.0492 149.44 68.5563C154.787 82.5789 154.045 100.355 147.294 119.959C140.586 139.441 128.038 160.396 111.004 180.561C110.18 181.536 108.982 182.115 107.705 182.156C107.658 182.156 107.611 182.158 107.564 182.158H107.566ZM105.771 48.846C98.6732 48.846 91.7343 50.6121 85.5747 54.0012C78.2326 58.0404 72.2609 64.3292 68.304 72.1863C64.114 80.5075 63.5815 90.9001 66.722 103.076C69.3456 113.252 74.5008 124.623 82.0407 136.876C91.3702 152.036 102.06 164.76 107.404 170.791C137.442 133.733 150.307 96.1022 141.029 71.7654C135.95 58.4457 123.28 49.686 107.963 48.9028C107.231 48.8656 106.501 48.846 105.771 48.846Z" fill="#525252"/>
<path d="M111.687 108.983C99.3722 108.983 89.3535 98.9647 89.3535 86.6494C89.3535 74.3341 99.3722 64.3155 111.687 64.3155C124.003 64.3155 134.021 74.3341 134.021 86.6494C134.021 98.9647 124.003 108.983 111.687 108.983ZM111.687 73.3239C104.339 73.3239 98.3599 79.3014 98.3599 86.6514C98.3599 94.0014 104.337 99.9789 111.687 99.9789C119.037 99.9789 125.015 94.0014 125.015 86.6514C125.015 79.3014 119.037 73.3239 111.687 73.3239Z" fill="#525252"/>
</svg>
