<svg width="222" height="222" viewBox="0 0 222 222" fill="none" xmlns="http://www.w3.org/2000/svg">
<path d="M124.327 98.1894C124.327 105.539 118.347 111.517 110.999 111.517C103.651 111.517 97.6719 105.539 97.6719 98.1894C97.6719 90.8394 103.651 84.8638 110.999 84.8638C118.347 84.8638 124.327 90.8413 124.327 98.1894Z" fill="#FF5A5F"/>
<path d="M147.691 82.0366C142.612 68.7189 129.942 59.9572 114.625 59.174C113.895 59.1368 113.163 59.1172 112.434 59.1172C105.337 59.1172 98.3962 60.8833 92.2366 64.2724C84.8945 68.3116 78.9228 74.6004 74.9659 82.4575C70.7838 90.763 70.2454 101.134 73.3682 113.283C75.9781 123.441 81.1118 134.793 88.6282 147.026C97.9616 162.215 108.705 175.008 114.067 181.062C144.106 144.005 156.969 106.373 147.691 82.0366ZM110.999 120.523C98.684 120.523 88.6654 110.505 88.6654 98.1894C88.6654 85.8741 98.684 75.8574 110.999 75.8574C123.315 75.8574 133.333 85.8761 133.333 98.1894C133.333 110.503 123.315 120.523 110.999 120.523Z" fill="#FF5A5F"/>
<path d="M189.197 109.731C189.197 149.679 159.239 182.63 120.564 187.347C136.128 168.265 147.638 148.594 153.96 130.233C160.711 110.626 161.453 92.8521 156.106 78.8295C152.862 70.3204 147.135 63.1525 139.544 58.0991C132.447 53.3727 123.989 50.6356 115.086 50.1794C105.557 49.6919 96.1569 51.8358 87.8965 56.3821C78.9527 61.3023 71.7006 68.9186 66.9233 78.4086C61.7231 88.7346 60.9634 101.246 64.6639 115.597C67.5126 126.646 73.0202 138.847 81.034 151.868C91.2425 168.457 102.769 181.974 108.061 187.872C66.238 186.327 32.8047 151.932 32.8047 109.731C32.8047 67.5304 67.8141 31.5342 111 31.5342C154.186 31.5342 189.197 66.5436 189.197 109.731Z" fill="#FF5A5F"/>
</svg>
