<svg width="277" height="277" viewBox="0 0 277 277" fill="none" xmlns="http://www.w3.org/2000/svg">
<path d="M144.163 259.51C143.397 260.417 142.005 260.44 141.21 259.557L138.183 256.197C137.065 254.956 110.518 225.326 87.8102 185.953C56.7236 132.052 48.6793 88.0864 63.9001 55.2799C79.1385 22.4325 110.577 3.25792 145.854 5.26899C178.562 7.1198 206.065 27.4533 215.917 57.0663C229.879 99.031 214.009 176.835 147.081 256.059L144.163 259.512V259.51ZM141.208 16.9465C118.021 16.9465 89.4773 28.2057 74.6122 60.248C46.6526 120.518 119.125 214.905 140.96 241.26C141.751 242.216 143.221 242.2 143.999 241.233C169.588 209.441 188.671 175.495 199.408 142.569C209.786 110.748 211.668 81.7053 204.712 60.7933C196.269 35.4175 173.461 18.6585 145.187 17.0579C143.884 16.9836 142.555 16.9465 141.21 16.9465H141.208Z" fill="#FF5A5F"/>
<path d="M87.0828 165.342L76.8594 159.432L119.725 85.063L176.092 111.858L192.249 79.5243L216.759 89.1243L212.449 100.122L197.989 94.4539L181.48 127.493L124.507 100.411L87.0828 165.342Z" fill="#FF5A5F"/>
<path d="M101.128 126.451L96.1191 137.145L132.24 154.065L137.249 143.371L101.128 126.451Z" fill="#FF5A5F"/>
<path d="M141.337 101.017L130.289 96.8461L140.002 71.1087L124.447 69.4768L124.307 11.7948L136.115 11.7655L136.23 58.839L156.453 60.9595L141.337 101.017Z" fill="#FF5A5F"/>
<path d="M69.8581 61.9774L62.0059 70.7968L109.17 112.789L117.022 103.969L69.8581 61.9774Z" fill="#FF5A5F"/>
<path d="M188.662 29.2346L147.006 103.435L157.303 109.216L198.959 35.0152L188.662 29.2346Z" fill="#FF5A5F"/>
<path d="M87.5799 163.071L82.3027 173.636L169.695 217.285L174.972 206.719L87.5799 163.071Z" fill="#FF5A5F"/>
<path d="M145.775 178.063C132.872 178.063 122.375 167.566 122.375 154.663C122.375 141.76 132.872 131.263 145.775 131.263C158.678 131.263 169.175 141.76 169.175 154.663C169.175 167.566 158.678 178.063 145.775 178.063ZM145.775 143.073C139.384 143.073 134.185 148.274 134.185 154.663C134.185 161.052 139.386 166.252 145.775 166.252C152.164 166.252 157.364 161.052 157.364 154.663C157.364 148.274 152.164 143.073 145.775 143.073Z" fill="#FF5A5F"/>
</svg>
