<svg width="277" height="277" viewBox="0 0 277 277" fill="none" xmlns="http://www.w3.org/2000/svg">
<path d="M164.646 216.601C157.907 226.831 150.484 236.945 142.427 246.838C134.161 236.996 115.72 213.949 99.426 186.015L83.0794 178.358L82.4325 179.484C84.3478 183.117 86.3902 186.791 88.5361 190.516C110.922 229.327 137.085 258.529 138.186 259.745L142.647 264.711L146.955 259.616C157.727 246.863 167.155 234.152 175.342 221.62L164.648 216.601H164.646ZM207.299 106.739C206.173 119.492 203.237 133.329 198.529 147.762C192.166 167.265 182.841 187.129 170.931 206.683L181.6 211.688C203.431 175.62 214.929 141.437 218.304 112.767L207.299 106.739ZM89.3667 167.484L88.927 168.234L90 168.752C89.7811 168.338 89.5739 167.912 89.3667 167.486V167.484ZM124.556 13.8567C98.7165 18.9264 76.8469 36.1133 64.974 61.7197C64.8196 62.0422 64.6769 62.3784 64.5342 62.7165L73.7296 70.9034C74.273 69.4552 74.869 68.0324 75.5277 66.6233C86.7654 42.3869 105.946 30.2188 124.581 25.886L124.556 13.8586V13.8567ZM70.3681 83.4995L60.3714 74.5894C54.1251 98.476 58.4834 127.393 73.3817 160.954C74.2749 162.971 75.2052 165.002 76.1883 167.058L78.3615 163.282L83.3531 154.643C72.9674 130.757 66.6313 105.694 70.3681 83.5015V83.4995ZM214.8 63.4807C211.632 53.9491 206.613 45.3869 200.134 38.1322L194.095 48.8794C198.232 54.2598 201.518 60.4025 203.755 67.153C206.368 74.9647 207.699 83.9256 207.817 93.7425L219.301 100.041C219.805 86.048 218.202 73.6845 214.8 63.4807ZM145.751 12.4339C142.53 12.2521 139.35 12.2404 136.194 12.4085L136.206 24.1251C137.886 23.9961 139.542 23.9433 141.172 23.9433C142.491 23.9433 143.797 23.9687 145.09 24.0469C160.921 24.94 175.004 30.6547 185.738 40.0064L191.441 29.828C178.974 19.6749 163.106 13.4169 145.749 12.4339H145.751Z" fill="white"/>
<path d="M78.3597 163.28L76.1864 167.056C75.2033 165 74.273 162.969 73.3799 160.952L78.3597 163.28Z" fill="white"/>
<path d="M145.674 171.105C139.364 171.105 134.241 165.971 134.241 159.672C134.241 153.373 139.362 148.252 145.674 148.252C151.987 148.252 157.094 153.373 157.094 159.672C157.094 165.971 151.971 171.105 145.674 171.105Z" fill="white"/>
<path d="M106.049 115.262L91.6416 140.275L83.3511 154.643L78.3596 163.282L76.1863 167.058C75.2032 165.002 74.2729 162.971 73.3798 160.954C58.4815 127.393 54.1232 98.476 60.3694 74.5894L70.3661 83.4995L106.047 115.262H106.049Z" fill="white"/>
<path d="M164.646 216.601L175.341 221.62C167.154 234.152 157.726 246.865 146.953 259.616L142.646 264.711L138.184 259.745C137.083 258.529 110.922 229.327 88.5342 190.516C86.3864 186.791 84.344 183.119 82.4307 179.484L83.0776 178.358L99.4241 186.015L164.644 216.601H164.646Z" fill="white"/>
<path d="M218.304 112.765C214.928 141.435 203.431 175.618 181.6 211.686L170.931 206.681L89.9978 168.75L88.9248 168.232L89.3645 167.482L102.322 145.018L123.131 154.768C122.781 156.346 122.601 157.989 122.601 159.67C122.601 172.395 132.947 182.742 145.673 182.742C158.398 182.742 168.732 172.395 168.732 159.67C168.732 146.945 158.386 136.612 145.673 136.612C138.818 136.612 132.648 139.612 128.419 144.385L108.154 134.892L124.708 106.208L180.861 132.901L196.807 100.983L207.295 106.739L218.3 112.766L218.304 112.765Z" fill="white"/>
<path d="M139.972 77.3177L132.535 97.0395L119.99 91.0786L111.985 104.968L73.7296 70.9034L64.5342 62.7164C64.6769 62.3803 64.8195 62.0441 64.9739 61.7197C76.8469 36.1133 98.7165 18.9263 124.556 13.8566L124.581 25.884L124.645 75.7132L139.97 77.3177H139.972Z" fill="white"/>
<path d="M185.739 40.0064L149.255 104.994L143.087 102.058L156.187 67.321L136.272 65.2259L136.207 24.127L136.195 12.4104C139.352 12.2423 142.531 12.256 145.752 12.4358C163.109 13.4189 178.977 19.6788 191.444 29.8299L185.741 40.0084L185.739 40.0064Z" fill="white"/>
<path d="M175.549 117.486L159.785 109.985L194.096 48.8793L200.136 38.1321C206.614 45.3868 211.633 53.949 214.801 63.4806C218.204 73.6845 219.807 86.048 219.302 100.041L207.818 93.7424L191.808 84.9613L175.551 117.486H175.549Z" fill="white"/>
</svg>
