<svg width="222" height="222" viewBox="0 0 222 222" fill="none" xmlns="http://www.w3.org/2000/svg">
<path d="M169.631 157.009H52.3675C51.0812 157.009 49.8575 156.459 49.0019 155.498C48.1463 154.536 47.7449 153.256 47.8937 151.979L57.5697 69.7722C58.4958 61.9112 62.1865 54.6023 67.9662 49.1926C73.744 43.7829 81.28 40.5797 89.1861 40.1744L129.047 38.1304C138.289 37.6565 147.234 40.7285 154.236 46.7824C161.237 52.8343 165.57 61.2435 166.436 70.4575L174.113 152.085C174.232 153.348 173.813 154.601 172.959 155.539C172.106 156.476 170.898 157.011 169.629 157.011L169.631 157.009ZM57.4307 148.003H164.685L157.47 71.2994C156.822 64.4095 153.582 58.1207 148.346 53.594C143.111 49.0673 136.423 46.7706 129.509 47.125L89.6482 49.1691C77.6481 49.7839 67.9212 58.8921 66.5174 70.8236L57.4327 148.003H57.4307Z" fill="#FF5A5F"/>
<path d="M164.931 120.057L123.072 108.051L57.7623 115.476L56.7441 106.526L122.945 99.0019C123.532 98.9353 124.128 98.9843 124.695 99.1468L167.415 111.399L164.933 120.057H164.931Z" fill="#FF5A5F"/>
<path d="M66.231 150.878L48.6367 176.894L56.0972 181.94L73.6915 155.924L66.231 150.878Z" fill="#FF5A5F"/>
<path d="M157.441 150.69L150.246 156.108L166.034 177.074L173.229 171.657L157.441 150.69Z" fill="#FF5A5F"/>
<path d="M159.804 73.8212H62.0449V82.8276H159.804V73.8212Z" fill="#FF5A5F"/>
<path d="M127.956 78.3244H118.949V103.476H127.956V78.3244Z" fill="#FF5A5F"/>
</svg>
