<svg width="221" height="222" viewBox="0 0 221 222" fill="none" xmlns="http://www.w3.org/2000/svg">
<path d="M124.807 19.3481L122.479 12.5933L132.053 14.9291L131.512 17.1689L126.023 15.8297L126.565 17.4058L131.182 18.5316L130.64 20.7715L124.807 19.3481Z" fill="#525252"/>
<path d="M120.606 24.4073L121.986 18.698L130.375 23.0015L129.333 25.0534L123.53 22.0774L123.292 23.0602L129.623 25.7994L128.715 27.9159L120.606 24.4073Z" fill="#525252"/>
<path d="M119.232 32.8931L120.776 26.5063L127.504 29.688L126.528 31.7731L122.343 29.7956L121.957 31.3874L126.549 32.9557L125.811 35.1388L119.232 32.8931Z" fill="#525252"/>
<path d="M117.184 57.3259L115.582 62.9587L136.025 68.824L137.627 63.1912L117.184 57.3259Z" fill="#525252"/>
<path d="M106.278 103.014L86.958 149.522L88.7226 150.261L108.042 103.753L106.278 103.014Z" fill="#525252"/>
<path d="M112.741 105.085L91.8369 153.217L93.5895 153.985L114.493 105.853L112.741 105.085Z" fill="#525252"/>
<path d="M117.58 107.191L96.5957 157.337L98.3584 158.081L119.343 107.935L117.58 107.191Z" fill="#525252"/>
<path d="M82.4173 164.408L81.6006 155.429L82.5888 151.343C82.8539 150.243 83.6471 149.354 84.7055 148.966C85.7639 148.578 86.9392 148.747 87.8474 149.418L100.758 158.949L97.4292 166.818L82.4173 164.41V164.408ZM83.5321 155.572L84.1851 162.748L96.2519 164.684L98.4057 159.595L86.715 150.965C86.3174 150.671 85.8223 150.601 85.3584 150.771C84.8946 150.942 84.5613 151.315 84.4443 151.797L83.5321 155.572Z" fill="#525252"/>
<path d="M82.4214 163.204L73.4658 184.491L75.2271 185.238L84.1826 163.952L82.4214 163.204Z" fill="#525252"/>
<path d="M87.0014 164.047L78.0186 186.516L79.7929 187.232L88.7757 164.763L87.0014 164.047Z" fill="#525252"/>
<path d="M92.2551 165.3L82.8086 187.656L84.5687 188.406L94.0152 166.051L92.2551 165.3Z" fill="#525252"/>
<path d="M70.5936 181.871L68.3506 187.278L83.8576 193.769L86.1005 188.361L70.5936 181.871Z" fill="#525252"/>
<path d="M120.038 111.397L98.4697 101.952L133.035 5.2373L138.524 7.21676L105.802 98.7727L117.043 103.695L157.703 10.8643L163.039 13.2236L120.038 111.397Z" fill="#525252"/>
<path d="M149.234 41.2512L150.125 39.1269L153.811 40.6893L154.296 38.6864L151.18 36.9849L152.275 34.9585L156.941 37.5097L155.405 43.8631L149.234 41.2512Z" fill="#525252"/>
<path d="M152.143 33.6487L152.684 31.4088L158.224 32.7598L158.454 31.8141L152.967 29.3648L153.899 27.26L161.136 30.4886L159.914 35.5439L152.143 33.6487Z" fill="#525252"/>
<path d="M154.421 26.5729L154.963 24.333L160.266 25.6272L160.6 25.079L155.77 23.0721L156.647 20.9419L163.952 23.9786L161.354 28.2645L154.421 26.5729Z" fill="#525252"/>
<path d="M77.145 217.021L61.447 207.958L57.0459 177.843L70.8689 137.616L72.7303 114.08C73.4241 105.297 80.8346 98.6827 89.5977 99.0195L96.2013 99.274L101.55 97.0361L117.164 103.765L125.732 86.573L135.039 88.8442L144.537 113.165L123.824 162.004L114.285 166.932L77.145 217.021ZM66.805 204.296L75.5603 209.352L110.414 162.344L119.282 157.763L138.233 113.075L130.714 93.8192L128.864 93.367L119.914 111.327L101.513 103.395L97.2557 105.177L89.3697 104.874C83.7426 104.656 78.9849 108.905 78.5386 114.544L76.6187 138.824L63.0179 178.407L66.8011 204.296H66.805Z" fill="#525252"/>
</svg>
