<svg width="278" height="277" viewBox="0 0 278 277" fill="none" xmlns="http://www.w3.org/2000/svg">
<path d="M214.677 96.0095L176.844 47.4781C174.965 45.0839 171.978 43.794 168.959 44.1634L104.233 51.1621C101.368 51.4689 98.8118 53.1868 97.4545 55.7041L66.1871 113.875C65.4476 115.254 65.0769 116.791 65.1397 118.356L66.6774 158.703L66.7108 159.551H211.442L216.493 102.148C216.679 99.9379 216.032 97.7587 214.677 96.0095ZM193.942 158.138H84.2089L84.1892 157.602L82.7907 120.045L110.734 68.0441L166.001 62.0891L198.687 104.021L193.942 158.138ZM66.8951 164.83V164.953C67.0187 164.675 67.1423 164.4 67.2953 164.124L66.8951 164.83ZM210.856 165.965V166.119L210.887 166.057V166.028L210.856 165.965Z" fill="#525252"/>
<path d="M198.687 104.021L193.942 158.138H84.2091L82.791 120.045L110.734 68.0441L166.002 62.0891L198.687 104.021Z" fill="#525252"/>
<path d="M215.013 146.738V146.888L215.042 146.828V146.798L215.013 146.738ZM230.628 202.805L211.484 159.551H193.602L210.996 196.516H65.5016L85.8438 159.551L86.6225 158.138L86.9167 157.602H67.2826L66.6765 158.703L43.4235 200.97C41.9721 203.618 42.0329 206.869 43.5726 209.456C45.1143 212.075 47.9231 213.67 50.9732 213.67H222.321C225.011 213.67 227.547 212.405 229.179 210.299C230.809 208.162 231.322 205.393 230.628 202.805ZM73.8692 145.624V145.745C73.9888 145.473 74.1104 145.204 74.2614 144.932L73.8692 145.624Z" fill="#525252"/>
<path d="M179.193 197.488V213.152C179.193 213.324 179.191 213.498 179.189 213.67C178.911 231.281 164.447 245.525 146.704 245.525H139.08C125.95 245.525 114.187 237.725 109.111 225.652L104.076 213.67L96.8672 196.516H119.797L127.005 213.67L128.619 217.514C130.39 221.728 134.496 224.452 139.08 224.452H146.704C152.784 224.452 157.762 219.664 158.033 213.67C158.043 213.498 158.047 213.326 158.047 213.152V197.488H179.193Z" fill="#525252"/>
</svg>
