<svg width="222" height="222" viewBox="0 0 222 222" fill="none" xmlns="http://www.w3.org/2000/svg">
<path d="M70.5541 146.891C70.3525 145.299 69.5947 144.196 68.8938 143.492C66.4073 141.001 63.4743 139.779 60.1772 139.86C58.3681 139.903 56.7097 140.658 55.2472 142.105C53.1404 144.189 51.9422 146.75 51.6896 149.716C51.4234 152.762 53.1072 155.515 55.9755 156.735C57.8903 157.549 59.8189 157.54 61.4537 157.424L61.4929 157.42C65.5497 157.068 69.9393 152.88 70.5267 148.801C70.6266 148.099 70.6266 147.462 70.5522 146.891H70.5541ZM56.8526 150.562C56.837 150.432 56.835 150.299 56.8468 150.16C56.9936 148.429 57.6613 147 58.885 145.79C59.5507 145.13 60.0108 145.046 60.3005 145.038C62.1527 144.993 63.766 145.684 65.2306 147.153C65.3539 147.276 65.4949 147.417 65.4048 148.069C65.1659 149.72 62.697 152.101 61.0641 152.257C59.8385 152.343 58.8478 152.326 58.0019 151.965C57.3362 151.682 56.9329 151.182 56.8526 150.56V150.562Z" fill="#525252"/>
<path d="M80.3205 104.137C80.3126 104.073 80.3029 104.008 80.295 103.944C79.8819 101.069 77.2446 98.9665 74.2881 99.1564C74.0865 99.1701 73.8692 99.1839 73.7517 99.176C71.8114 99.0429 70.0042 99.55 68.3948 100.684C66.1158 102.293 64.4673 104.339 63.4922 106.767C62.8069 108.474 62.8794 110.371 63.688 111.969C64.4947 113.561 65.9709 114.734 67.7428 115.188C68.6337 115.417 69.503 115.489 70.202 115.546C70.4448 115.566 70.6778 115.585 70.8931 115.611L71.3709 115.668L71.8368 115.55C74.1805 114.961 77.0958 114.226 78.8599 111.327C80.1501 109.206 80.6553 106.724 80.3264 104.137H80.3205ZM68.203 109.304C68.1775 109.11 68.2069 108.905 68.2891 108.699C68.8941 107.192 69.9024 105.956 71.3709 104.919C71.9993 104.476 72.6455 104.294 73.4032 104.345C73.8731 104.374 74.2882 104.347 74.621 104.325C74.854 104.31 75.1359 104.449 75.1692 104.68C75.3826 106.152 75.132 107.485 74.4311 108.635C73.877 109.545 72.8941 109.927 71.0047 110.416C70.8794 110.405 70.7502 110.395 70.621 110.383C70.0649 110.338 69.4913 110.291 69.0272 110.172H69.0233C68.5985 110.062 68.3948 109.815 68.2989 109.625C68.248 109.526 68.2147 109.416 68.201 109.304H68.203Z" fill="#525252"/>
<path d="M102.649 67.6518C102.641 67.5872 102.632 67.5226 102.624 67.458C102.213 64.5857 99.5734 62.4829 96.6169 62.6709C96.4016 62.6846 96.196 62.7002 96.0844 62.6924C94.1382 62.5593 92.3311 63.0664 90.7217 64.2C88.4407 65.8113 86.7921 67.8554 85.8191 70.2832C85.1338 71.9886 85.2043 73.8858 86.0148 75.4874C86.8215 77.0791 88.2978 78.2519 90.0677 78.7062C90.9605 78.9372 91.8298 79.0077 92.5288 79.0645C92.7716 79.084 93.0046 79.1017 93.22 79.1291L93.6957 79.1859L94.1617 79.0684C96.5053 78.479 99.4207 77.7448 101.185 74.8452C102.475 72.7228 102.98 70.2421 102.651 67.6537L102.649 67.6518ZM90.5318 72.8187C90.5063 72.6249 90.5357 72.4193 90.6179 72.2137C91.2229 70.7061 92.2312 69.4707 93.6997 68.433C94.3281 67.9905 94.9743 67.8084 95.732 67.8593C96.194 67.8907 96.6091 67.8613 96.942 67.8397C97.1828 67.8241 97.4647 67.9631 97.498 68.1941C97.7114 69.6724 97.4608 70.9998 96.7599 72.1511C96.2058 73.0615 95.2229 73.4413 93.3335 73.9308C93.2082 73.9191 93.079 73.9093 92.9478 73.8975C92.3937 73.8525 91.8201 73.8055 91.356 73.6861H91.3502C90.9253 73.5764 90.7217 73.3297 90.6277 73.1398C90.5768 73.04 90.5435 72.9303 90.5298 72.8168L90.5318 72.8187Z" fill="#525252"/>
<path d="M167.437 100.057C166.965 96.3411 164.165 93.7371 160.269 93.412C159.48 93.3474 158.724 93.3572 158.115 93.365C157.898 93.367 157.694 93.3709 157.512 93.369L157.365 93.3729C154.125 93.5276 152.014 95.0978 150.54 96.4507C148.856 97.9916 147.954 100.071 147.779 102.808C147.495 107.215 150.033 110.383 154.401 111.065C156.989 111.472 159.253 111.272 161.322 110.458C165.428 108.838 167.948 104.613 167.451 100.183C167.447 100.141 167.441 100.098 167.435 100.057H167.437ZM157.547 98.5496C157.741 98.5496 157.955 98.5496 158.18 98.5457C158.706 98.5398 159.304 98.532 159.844 98.5751C160.852 98.6592 162.1 99.1017 162.303 100.713C162.305 100.729 162.307 100.744 162.309 100.762C162.546 102.871 161.361 104.874 159.427 105.637C158.223 106.111 156.88 106.211 155.204 105.947H155.2C153.463 105.676 152.829 104.891 152.942 103.137C153.029 101.764 153.365 100.883 154.029 100.275C155.298 99.1115 156.288 98.626 157.545 98.5516L157.547 98.5496Z" fill="#525252"/>
<path d="M139.751 128.995C139.436 126.514 137.147 124.108 134.485 123.58C131.305 122.947 128.401 123.36 125.856 124.805C125.805 124.829 125.735 124.854 125.666 124.882C125.245 125.046 124.538 125.324 123.943 125.956L123.873 126.031C123.732 126.182 123.591 126.332 123.456 126.493C122.902 127.121 122.107 128.169 121.938 129.641C121.842 130.469 121.784 131.296 121.731 132.024L121.635 133.285L121.764 133.735C122.273 135.519 123.279 138.013 126.146 139.059H126.15C128.948 140.077 131.571 139.938 133.95 138.644L134.017 138.606C134.933 138.107 135.973 137.541 136.897 136.713C138.837 134.978 139.812 132.566 139.79 129.547C139.79 129.363 139.777 129.179 139.753 128.993L139.751 128.995ZM127.512 129.72L127.557 129.702C127.785 129.612 128.094 129.49 128.421 129.302C129.864 128.482 131.522 128.271 133.478 128.66C133.929 128.75 134.512 129.34 134.616 129.645C134.616 131.585 133.952 132.404 133.449 132.852C132.971 133.279 132.278 133.657 131.544 134.058L131.479 134.094C130.434 134.663 129.302 134.695 127.92 134.193C127.644 134.094 127.277 133.958 126.868 132.733C126.876 132.621 126.884 132.51 126.892 132.396C126.943 131.687 126.996 130.955 127.078 130.238C127.068 130.276 127.125 130.158 127.362 129.89C127.416 129.825 127.465 129.77 127.512 129.721V129.72Z" fill="#525252"/>
<path d="M109.85 148.699C109.744 147.869 109.519 147 109.108 146.133C107.675 143.123 105.353 142.276 103.657 142.093C102.471 141.962 101.304 142.003 100.421 142.052C99.5123 142.105 98.5823 142.422 97.8638 142.926L97.4585 143.211C96.4325 143.93 95.3713 144.674 94.3865 145.61C92.364 147.536 91.5162 149.868 91.7962 152.739C91.9489 154.513 92.6792 156.024 93.9597 157.216C96.037 159.153 98.5392 160.102 101.194 159.961C105.165 159.752 108.879 156.494 109.648 152.547C109.848 151.525 110.038 150.172 109.85 148.701V148.699ZM100.754 147.223C101.406 147.186 102.287 147.155 103.095 147.245C103.51 147.29 103.984 147.415 104.433 148.359C104.808 149.152 104.85 150.111 104.568 151.554C104.26 153.134 102.486 154.706 100.92 154.789C99.665 154.855 98.5412 154.409 97.4839 153.424C97.1981 153.158 96.9964 152.86 96.9475 152.261C96.8202 150.957 97.0943 150.18 97.9499 149.363C98.6528 148.696 99.5123 148.093 100.423 147.456L100.754 147.223Z" fill="#525252"/>
<path d="M189.685 73.7017C189.272 70.4555 188.412 67.4482 187.105 64.6836C180.661 51.0702 165.507 48.5465 163.8 48.3037L162.971 48.1999L160.22 49.2161L143.59 55.3992L137.81 68.0434L136.943 51.7105L101.105 36.5405C100.302 36.0158 98.5971 35.2444 95.948 35.7574C85.4516 37.7877 70.5989 58.3262 52.9973 95.1526C34.7495 133.332 28.2297 161.252 34.1504 175.897C35.9673 180.392 39.0001 183.603 42.9375 185.215L43.0981 185.352L43.566 185.456C44.171 185.675 44.8112 185.859 45.473 186.004L45.5611 186.023C47.5758 186.462 49.7687 186.536 52.0751 186.243C53.9939 185.998 56.5959 185.818 59.6111 185.608C83.435 183.958 139.226 180.093 174.347 122.009C186.149 102.491 191.281 86.299 189.683 73.7076L189.685 73.7017ZM163.541 53.5078C166.31 53.9914 177.53 56.5543 182.429 66.9039C187.943 78.5495 183.616 96.6759 169.922 119.323C155.426 143.298 135.584 160.4 110.95 170.158C90.46 178.274 70.9278 179.627 59.2567 180.435C56.1632 180.651 53.4907 180.835 51.4231 181.099C49.6845 181.32 48.0672 181.27 46.6145 180.946L46.5185 180.927C46.2092 180.856 45.9096 180.776 45.6238 180.684L45.4985 180.576L45.0423 180.475C42.3188 179.413 40.2689 177.219 38.9492 173.951C35.891 166.385 34.2542 146.372 57.6669 97.3847C80.0772 50.4985 92.1164 42.3477 96.2535 41.0183C97.4497 40.6345 98.0626 40.7931 98.2309 40.8558L98.415 41.0242L131.948 55.219L132.78 70.8921C132.892 73.0243 134.376 74.7179 136.467 75.1173C138.558 75.5148 140.561 74.479 141.446 72.5407L147.402 59.5088L163.539 53.5098L163.541 53.5078Z" fill="#525252"/>
<path d="M97.3022 34.4807C96.8147 34.4983 96.2939 34.5551 95.7378 34.6628C84.7265 36.7911 70.0108 56.9811 51.9961 94.6689C39.1737 121.494 25.4918 157.434 33.1218 176.308C35.0229 181.013 38.2104 184.42 42.3475 186.166L42.5844 186.37L43.2559 186.519C43.8883 186.744 44.554 186.934 45.2354 187.082L45.3274 187.102C47.4654 187.568 49.7817 187.646 52.2153 187.337C54.1047 187.096 56.6931 186.916 59.6887 186.708C83.6829 185.046 139.875 181.154 175.298 122.577C187.204 102.888 192.414 86.3948 190.785 73.5607C190.36 70.2107 189.459 67.0624 188.106 64.2077C181.414 50.0716 165.723 47.4558 163.955 47.2032L162.839 47.0623L142.771 54.516L138.677 63.4715L138.013 50.9526L101.623 35.5497C100.844 35.0603 99.3972 34.4044 97.3022 34.4807ZM43.6084 184.324L43.5222 184.251L43.3558 184.183C39.7043 182.689 36.8751 179.678 35.1776 175.476C31.1325 165.471 31.1149 143.497 53.997 95.6264C71.1914 59.6516 86.1656 38.7764 96.1568 36.8439C98.4339 36.4053 99.8514 37.0456 100.496 37.4665L100.67 37.5605L135.869 52.4602L136.938 72.6091L144.402 56.2782L163.096 49.3334L163.656 49.4039C165.285 49.6369 179.903 52.0706 186.097 65.1593C187.349 67.8024 188.185 70.7237 188.58 73.8426C190.144 86.1677 185.036 102.178 173.396 121.43C138.571 179.022 83.1837 182.857 59.5321 184.496C56.5032 184.706 53.8854 184.888 51.9314 185.136C49.7503 185.416 47.6847 185.346 45.7934 184.935L45.7014 184.915C45.0944 184.782 44.4992 184.612 43.9392 184.408L43.6064 184.324H43.6084ZM97.4843 39.6594C97.0653 39.6751 96.5445 39.7553 95.914 39.959C90.6081 41.6623 78.4514 51.3266 56.6657 96.9029C46.5374 118.095 30.6313 156.339 37.9206 174.364C39.3597 177.925 41.6211 180.33 44.6402 181.506L44.8027 181.555L44.9867 181.596L45.069 181.667L45.2804 181.735C45.5956 181.837 45.9304 181.929 46.2731 182.008L46.3827 182.031C47.951 182.38 49.6975 182.436 51.5614 182.197C53.5781 181.941 56.2075 181.757 59.2501 181.547L59.3304 181.542C71.0661 180.729 90.706 179.368 111.354 171.188C136.22 161.338 156.243 144.081 170.867 119.895C184.764 96.9127 189.107 78.4222 183.427 66.426C178.366 55.7339 167.07 52.9967 163.728 52.4132L163.433 52.3623L146.583 58.6257L140.435 72.0766C139.765 73.5411 138.252 74.3223 136.672 74.0247C135.09 73.7232 133.97 72.4407 133.886 70.8313L133.016 54.4651L98.9782 40.0353L98.8196 39.8904L98.6179 39.8141C98.3986 39.7318 98.0266 39.6398 97.4843 39.6594ZM45.3685 179.407C42.9799 178.448 41.1649 176.473 39.9764 173.53C36.9847 166.131 35.436 146.464 58.6667 97.8603C68.3251 77.6527 77.0789 62.4926 84.6834 52.799C90.984 44.7696 94.8489 42.6315 96.5895 42.0715C97.1612 41.8875 97.5195 41.8699 97.7036 41.8777L97.8034 41.9678L97.9796 42.0422L130.875 55.9649L131.669 70.9449C131.81 73.592 133.653 75.7046 136.257 76.2019C138.861 76.6973 141.349 75.4089 142.454 72.9968L148.22 60.382L163.642 54.6511C167.037 55.2894 176.958 57.9346 181.426 67.3756C186.771 78.6669 182.466 96.4311 168.974 118.743C154.606 142.505 134.947 159.452 110.544 169.121C90.2145 177.173 70.7901 178.519 59.1855 179.323L59.1033 179.329C56.0254 179.543 53.3666 179.727 51.2853 179.993C49.674 180.198 48.184 180.153 46.8565 179.86L46.7508 179.836C46.557 179.793 46.3612 179.742 46.1732 179.685L46.0127 179.546L45.3705 179.404L45.3685 179.407Z" fill="#525252"/>
<path d="M123.907 113.968C130.35 113.428 135.069 108.872 135.956 102.309C136.15 100.835 136.2 99.3622 136.242 98.1796C136.257 97.7215 136.271 97.2947 136.292 96.9109L136.296 96.7621C136.291 91 133.532 87.0861 131.129 84.3196C128.553 81.3455 124.893 79.6597 119.944 79.1663C112.214 78.3891 106.663 82.3538 105.101 89.7743C104.091 94.5301 104.257 98.6985 105.61 102.52C108.202 109.833 115.638 114.548 123.693 113.986C123.764 113.982 123.834 113.976 123.905 113.97L123.907 113.968ZM131.124 96.6995C131.102 97.0969 131.086 97.5355 131.071 98.0034C131.032 99.1312 130.988 100.41 130.828 101.626C130.264 105.79 127.523 108.467 123.482 108.807C123.435 108.811 123.388 108.815 123.339 108.819C117.594 109.22 112.31 105.917 110.491 100.788C109.453 97.8527 109.35 94.6946 110.166 90.8492V90.8453C111.186 86.0014 114.299 83.8046 119.431 84.3235C123.053 84.6837 125.53 85.7645 127.225 87.7185C129.972 90.8825 131.106 93.4885 131.126 96.7014L131.124 96.6995Z" fill="#525252"/>
</svg>
