<svg width="222" height="221" viewBox="0 0 222 221" fill="none" xmlns="http://www.w3.org/2000/svg">
<path d="M171.305 170.52C171.176 170.52 171.044 170.515 170.915 170.503L50.3058 160.069C49.0488 159.96 47.8937 159.331 47.1242 158.335C46.3548 157.339 46.0415 156.066 46.2588 154.828L63.9956 54.1848C64.3734 52.0408 66.2432 50.4757 68.4302 50.4757H162.436C164.785 50.4757 166.739 52.2728 166.925 54.6039L175.792 165.681C175.898 166.995 175.417 168.289 174.477 169.218C173.629 170.055 172.487 170.52 171.305 170.52ZM55.9799 151.562L166.394 161.112L158.277 59.4435H72.2129L55.9779 151.562H55.9799Z" fill="white"/>
<path d="M97.4799 162.849L94.8994 124.96L88.0448 126.138L86.5137 117.302L94.2866 115.967L92.0213 82.7059C91.9332 81.4254 92.4031 80.1702 93.3076 79.2561C94.2122 78.3419 95.4672 77.8585 96.7536 77.9268L139.612 80.2014C142.003 80.3281 143.877 82.2947 143.877 84.6784V112.777C143.877 114.958 142.299 116.823 140.139 117.195L103.822 123.432L106.465 162.247L97.4799 162.853V162.849ZM101.351 87.1479L103.209 114.435L134.87 108.999V88.9275L101.351 87.1479Z" fill="white"/>
</svg>
