<svg width="123" height="140" viewBox="0 0 123 140" fill="none" xmlns="http://www.w3.org/2000/svg">
<path d="M68.863 139.172C67.5061 139.172 66.2217 138.547 65.3857 137.471L0.927289 54.551C0.196988 53.6132 -0.122153 52.4188 0.0423116 51.2421L5.69872 10.447C5.95913 8.56351 7.40015 7.05983 9.26996 6.71916L45.6617 0.0720403C47.8839 -0.333248 50.0553 1.00792 50.6838 3.17925L58.9442 31.6728C59.5374 33.7207 58.58 35.8999 56.6691 36.8456L33.507 48.3287C38.0082 56.5304 45.5756 66.6431 54.8189 76.7498C63.2908 86.0107 72.4401 94.4454 80.1934 100.208L85.797 84.2545C86.5214 82.1909 88.6497 80.973 90.7955 81.3901L115.371 86.1772C117.294 86.5511 118.739 88.1507 118.915 90.1028L122.755 132.343C122.864 133.545 122.477 134.737 121.68 135.646C120.885 136.552 119.751 137.095 118.547 137.144L69.0412 139.17C68.9805 139.172 68.9198 139.174 68.861 139.174L68.863 139.172ZM9.02522 50.6117L70.9521 130.273L113.564 128.529L110.443 94.1929L92.8494 90.7665L86.588 108.593C86.1416 109.866 85.1352 110.865 83.8586 111.301C82.5821 111.738 81.1763 111.565 80.0427 110.833C70.7524 104.834 59.1909 94.5766 48.3205 82.696C36.8276 70.1321 28.0385 57.8814 23.5725 48.2015C22.574 46.036 23.4785 43.4692 25.6166 42.41L49.4601 30.59L43.3337 9.45632L13.9905 14.8171L9.02718 50.6136L9.02522 50.6117Z" fill="#FF5A5F"/>
</svg>
