<svg width="99" height="99" viewBox="0 0 99 99" fill="none" xmlns="http://www.w3.org/2000/svg">
<path d="M53.25 15.2558H82.8546L85.5058 52.814L53.25 45.3023V15.2558Z" fill="#525252"/>
<path d="M42.2034 45.3023V21.8837L17.3618 17.3676L21.436 47.9535L42.2034 45.3023Z" fill="#525252"/>
<path d="M22.7616 57.2326L44.8546 56.7907L42.2034 79.7674H18.343L22.7616 57.2326Z" fill="#525252"/>
<path d="M30.7151 2H4.6453V28.9535M1.99414 51.0465L4.6453 88.1628L32.4825 97M63.8546 90.3721H88.5988L96.9941 55.0233M82.8546 6.4186H96.9941V30.7209M82.8546 15.2558H53.25V45.3023L85.5058 52.814L82.8546 15.2558ZM42.2034 21.8837V45.3023L21.436 47.9535L17.3618 17.3676L42.2034 21.8837ZM44.8546 56.7907L22.7616 57.2326L18.343 79.7674H42.2034L44.8546 56.7907Z" stroke="#525252" stroke-width="4"/>
<path d="M76.369 68.4963L77.3615 59.1971L69.5279 57.6387L70.0102 67.3515L76.369 68.4963Z" fill="#525252"/>
<path d="M62.7566 67.7117L64.3774 61.3023L56.6402 61.6865L56.9537 67.9998L62.7566 67.7117Z" fill="#525252"/>
<path d="M63.1183 74.9963L63.2642 68.1733L70.0343 67.8372L70.3719 74.6362L76.6583 74.324L77.0682 82.5799L70.7818 82.892L70.3719 74.6362L63.1183 74.9963L61.981 81.3817L55.6945 81.6938L55.3811 75.3805L63.1183 74.9963Z" fill="#525252"/>
<path d="M63.1183 74.9963L63.2642 68.1733L70.0343 67.8372L70.3719 74.6362M63.1183 74.9963L70.3719 74.6362M63.1183 74.9963L55.3811 75.3805L55.6945 81.6938L61.981 81.3817L63.1183 74.9963ZM70.3719 74.6362L70.7818 82.892L77.0682 82.5799L76.6583 74.324L70.3719 74.6362ZM77.3615 59.1971L76.369 68.4963L70.0102 67.3515L69.5279 57.6387L77.3615 59.1971ZM64.3774 61.3023L62.7566 67.7117L56.9537 67.9998L56.6402 61.6865L64.3774 61.3023Z" stroke="#525252" stroke-width="0.5"/>
</svg>
