<svg width="222" height="221" viewBox="0 0 222 221" fill="none" xmlns="http://www.w3.org/2000/svg">
<path d="M82.8122 15.2068C83.5934 15.2068 84.3649 15.3764 85.0677 15.7487C86.7535 16.6433 88.1456 17.727 89.3575 19.2765C91.0472 21.4342 90.4775 26.3712 88.9836 28.1176C88.2337 28.9928 88.2259 29.7432 88.6938 30.5053C89.6356 32.0373 90.6732 33.5205 91.7853 34.9317C92.359 35.6587 93.1383 36.2492 93.8979 36.7989C95.474 37.9411 96.1848 39.5276 96.7428 41.3364C97.4398 43.5993 98.3561 45.8096 99.3448 47.9672L102.221 55.5999C105.833 65.1875 108.868 74.9817 111.306 84.9298L113.199 92.6541C113.91 95.4491 114.579 98.2597 115.451 101.006C117.479 107.401 120.187 113.552 122.701 119.766C127.245 130.999 130.566 142.826 134.48 154.294C135.122 156.175 135.376 158.167 136.179 159.986C137.091 162.05 137.982 164.122 138.834 166.211C140.324 169.875 141.708 173.584 142.981 177.331C143.568 179.061 144.175 180.786 144.768 182.513C145.103 183.49 145.436 184.468 145.767 185.447L146.294 189.411L151.243 195.59L150.441 205.795C139.006 205.707 127.574 205.444 116.142 205.275C111.421 205.205 106.699 205.269 101.98 205.185C95.6405 205.074 89.3008 204.947 82.9669 204.698C76.8406 204.456 70.7143 204.125 64.5997 203.661L62.2815 194.475L63.8851 191.863C63.8851 191.863 72.9208 187.076 75.4231 184.708C76.774 183.429 78.2777 182.19 79.2194 180.636C80.3922 178.701 81.1813 176.5 81.9175 174.343C83.6992 169.117 85.4456 163.876 87.0276 158.59C88.1221 154.935 88.8994 151.189 89.8666 147.498C90.1172 146.545 90.64 145.662 90.8808 144.707C91.523 142.169 91.9988 139.588 92.684 137.062C94.5166 130.293 96.4295 123.543 98.2993 116.784C98.8377 114.839 99.4271 112.901 99.803 110.925C99.9205 110.303 99.2509 109.57 99.2313 108.88C99.1275 105.514 99.6287 102.361 101.712 99.4662L102.767 94.3206L95.3057 68.2027C94.5989 66.7272 93.8157 65.2869 93.0815 63.825C92.8504 63.3631 92.6409 62.8856 92.4667 62.3983C91.9048 60.8312 91.6914 59.0186 90.7457 57.738C88.9855 55.3543 88.314 52.6353 87.5758 49.9182C87.2645 48.7722 87.337 47.5072 87.3448 46.2968C87.3526 44.9675 87.7031 43.6051 87.5073 42.3168C87.3115 41.0265 86.7868 39.7147 86.1093 38.5882C85.428 37.4538 84.3825 36.5338 83.474 35.4949C82.2973 35.7698 81.5083 35.953 80.9307 35.953C79.7422 35.953 79.4564 35.1733 78.5498 32.7974C78.1602 31.778 78.0408 30.5189 76.6135 30.1622C76.4059 30.1096 76.2689 29.3378 76.2845 28.9051C76.3766 26.1607 76.5508 23.4184 76.637 20.674C76.7329 17.6451 79.8479 15.2127 82.8103 15.2127M87.4681 182.422C87.4681 182.422 87.4721 182.422 87.474 182.422C87.6385 182.422 86.5538 185.955 85.9371 187.581C84.31 191.875 92.9992 192.5 100.001 192.5C102.879 192.5 105.471 192.395 106.944 192.395C107.206 192.395 107.433 192.399 107.621 192.407C108.805 192.457 109.992 192.508 111.177 192.557C114.28 192.689 118.309 193.196 122.178 193.196C129.785 193.196 136.778 191.237 134.926 180.617C132.835 168.628 127.819 157.286 123.543 145.87C122.205 142.301 111.177 103.017 109.737 103.017C109.732 103.017 109.728 103.017 109.724 103.017C109.667 103.023 109.549 103.025 109.395 103.025C108.954 103.025 108.218 103.008 107.776 103.008C107.619 103.008 107.502 103.01 107.445 103.015C107.445 103.015 104.257 118.191 102.542 123.97C100.132 132.094 95.0883 154.957 92.8348 163.124C91.6424 167.447 90.1681 171.686 88.9679 176.005C88.3805 178.122 88.0536 180.305 87.4642 182.424M82.8122 8.385C79.754 8.385 76.6154 9.56225 74.2013 11.6127C71.5014 13.9068 69.8939 17.1286 69.7882 20.4538C69.7451 21.8084 69.6805 23.1513 69.612 24.5722C69.5474 25.9074 69.4808 27.2893 69.4358 28.6731C69.4083 29.4781 69.4984 30.3708 69.6844 31.1894C70.0838 32.926 70.9747 34.384 72.216 35.4033C72.7681 36.8535 73.2184 38.0093 73.9899 39.132C75.5347 41.3773 77.8567 42.6579 80.5606 42.7631C80.6331 42.9463 80.682 43.1062 80.7094 43.2309C80.7016 43.4161 80.6644 43.7708 80.637 44.0378C80.5743 44.6459 80.4941 45.4022 80.4882 46.2481C80.4882 46.404 80.4843 46.5619 80.4823 46.7198C80.4647 48.0159 80.4392 49.7896 80.9542 51.6919L81.0677 52.111C81.8176 54.8923 82.7476 58.3383 85.0697 61.5719C85.1558 61.8116 85.2831 62.2755 85.379 62.6263C85.5474 63.2403 85.7373 63.9361 86.0056 64.6865C86.266 65.4135 86.5812 66.1464 86.9415 66.8676C87.2508 67.4854 87.5641 68.0897 87.8676 68.6744C88.22 69.3527 88.5548 70.0017 88.87 70.6371L95.711 94.5817L95.2508 96.8251C92.4961 101.388 92.2768 105.947 92.3727 109.085C92.3982 109.89 92.5431 110.601 92.7193 111.192C92.5098 112.034 92.2631 112.907 92.0085 113.81C91.8989 114.195 91.7912 114.581 91.6835 114.967C91.0335 117.32 90.3659 119.713 89.7197 122.027C88.5098 126.364 87.2586 130.849 86.0584 135.281C85.6355 136.84 85.2968 138.366 84.9679 139.844C84.7231 140.941 84.4941 141.978 84.2376 142.989C84.2004 143.093 84.1044 143.323 84.034 143.494C83.7971 144.061 83.4701 144.839 83.2273 145.771C82.8475 147.217 82.499 148.665 82.1602 150.065C81.6061 152.361 81.0834 154.528 80.451 156.637C78.8259 162.061 76.9953 167.521 75.4191 172.146C74.7887 173.998 74.1543 175.769 73.3418 177.108C73.0677 177.562 72.2258 178.338 71.4837 179.022C71.2272 179.26 70.961 179.504 70.6908 179.761C69.6922 180.695 65.003 183.535 60.6565 185.838C59.5757 186.411 58.6672 187.263 58.029 188.304L56.4254 190.916C55.466 192.479 55.1782 194.358 55.6266 196.135L57.9448 205.321C58.6633 208.169 61.1303 210.239 64.0711 210.461C69.9076 210.904 75.9967 211.247 82.6869 211.512C89.1715 211.767 95.709 211.896 101.851 212.003C104.381 212.048 106.922 212.052 109.383 212.054C111.57 212.058 113.831 212.06 116.032 212.093C119.995 212.151 124.03 212.223 127.932 212.291C135.284 212.422 142.887 212.555 150.382 212.613C150.399 212.613 150.417 212.613 150.437 212.613C154.01 212.613 156.988 209.877 157.268 206.323L158.071 196.118C158.206 194.395 157.679 192.684 156.596 191.331L152.833 186.634L152.555 184.548C152.498 184.115 152.398 183.688 152.259 183.275C151.938 182.322 151.607 181.35 151.249 180.303C151.006 179.595 150.762 178.888 150.517 178.18C150.17 177.18 149.812 176.147 149.469 175.14C148.162 171.288 146.719 167.423 145.184 163.648C144.402 161.728 143.535 159.691 142.45 157.237C142.213 156.701 142.008 155.877 141.788 155.004C141.569 154.13 141.323 153.14 140.966 152.098C139.68 148.33 138.429 144.426 137.217 140.649C134.738 132.922 132.177 124.933 129.054 117.215C128.492 115.825 127.915 114.425 127.357 113.071C125.362 108.233 123.476 103.663 121.982 98.9497C121.324 96.8758 120.784 94.724 120.21 92.4455C120.089 91.9641 119.968 91.4827 119.846 91.0013L117.961 83.3082C115.466 73.1339 112.33 63.0045 108.635 53.1986L105.759 45.5659C105.704 45.4178 105.643 45.2736 105.577 45.1293C104.541 42.8723 103.817 41.0284 103.292 39.3308C102.523 36.834 101.217 33.6609 97.9293 31.2791C97.7707 31.1641 97.3047 30.8269 97.1344 30.6631C96.7839 30.2168 96.4413 29.7607 96.1104 29.2988C96.8642 27.3984 97.1187 25.5175 97.2009 24.3091C97.4496 20.6799 96.5842 17.4015 94.7614 15.0762C93.0306 12.866 90.9141 11.1157 88.2905 9.72403C86.6341 8.84498 84.7388 8.37915 82.8122 8.37915V8.385ZM94.2719 183.497C94.5264 182.503 94.73 181.548 94.9278 180.617C95.1412 179.617 95.3409 178.672 95.5798 177.814C96.1437 175.785 96.7682 173.783 97.428 171.665C98.1094 169.48 98.8143 167.221 99.4486 164.921C100.486 161.159 102.051 154.571 103.707 147.595C105.641 139.448 107.836 130.213 109.119 125.894C109.305 125.264 109.506 124.537 109.72 123.738C111.063 128.161 112.428 132.757 113.593 136.682C115.648 143.605 116.657 146.989 117.127 148.244C117.974 150.505 118.857 152.784 119.711 154.986C123.259 164.139 126.611 172.783 128.179 181.774C128.588 184.125 128.269 185.141 128.124 185.312C128.114 185.322 127.177 186.365 122.184 186.365C120.054 186.365 117.788 186.185 115.596 186.012C114.147 185.897 112.776 185.788 111.474 185.733L107.919 185.583C107.641 185.571 107.323 185.565 106.949 185.565C106.256 185.565 105.409 185.585 104.426 185.606C103.104 185.636 101.604 185.671 100.007 185.671C97.242 185.671 95.2548 185.558 93.8412 185.411C93.9097 185.166 93.9704 184.94 94.0232 184.735C94.0957 184.449 94.2034 184.022 94.2758 183.497H94.2719Z" fill="#525252"/>
</svg>
