<svg width="221" height="222" viewBox="0 0 221 222" fill="none" xmlns="http://www.w3.org/2000/svg">
<path d="M181.334 81.0204C178.72 61.0517 165.8 44.5895 143.966 33.4157C117.234 19.7475 90.9991 19.585 70.0639 32.9732C50.5398 45.4569 38.4204 68.1883 39.1942 90.8844C40.3636 125.228 58.2641 139.971 69.8203 146.192L62.747 162.474L58.5896 172.046L62.0824 173.546L79.4702 181.005L83.959 182.932L89.2021 170.865L94.1255 159.533C105.062 162.133 134.622 166.949 154.193 149.256C167.158 137.536 185.086 109.69 181.332 81.0204H181.334ZM147.743 142.054C127.977 159.92 93.1568 149.267 92.8137 149.158L88.6778 147.85L78.9791 170.176L71.2879 167.041L82.4387 141.373L78.0182 139.437C68.3331 135.19 49.9532 123.403 48.8344 90.5535C48.1853 71.5167 58.8001 51.6615 75.2446 41.1456C93.1821 29.6741 116.026 29.9952 139.588 42.0521C158.73 51.8475 169.557 65.3845 171.77 82.2833C174.664 104.382 161.551 129.573 147.743 142.054Z" fill="#525252"/>
<path d="M157.881 108.29L148.849 104.811C149.761 102.205 150.562 99.4562 151.157 96.627C151.821 93.4689 152.227 90.2148 152.24 86.9529C152.254 83.6577 151.87 80.3567 150.948 77.1457C148.291 67.8809 141.388 60.478 130.35 55.0546C128.843 54.3125 127.257 53.6077 125.596 52.94C124.171 52.3683 122.758 51.8788 121.363 51.4677C99.451 44.9929 81.2659 57.5548 73.2298 72.8559C65.7453 87.1115 64.3712 108.721 85.129 122.716C95.4904 129.704 106.62 131.429 114.424 131.587L98.7162 116.793C97.1842 115.352 96.7593 113.079 97.6597 111.176C98.5641 109.273 100.589 108.173 102.669 108.459L129.35 112.132L135.121 98.023C138.439 89.9172 134.63 80.4703 126.633 76.9636L118.899 73.5725C116.137 72.3625 112.913 73.6352 111.709 76.4076L110.027 80.2764C108.824 83.0488 110.089 86.2872 112.849 87.4972L121.417 91.2545L117.56 100.134L108.992 96.3783C101.357 93.0322 97.8547 84.0689 101.188 76.4017L102.868 72.5309C105.46 66.5632 111.442 63.1075 117.566 63.4501C119.308 63.5461 121.064 63.9513 122.756 64.6934L126.742 66.4399L130.492 68.0845C138 71.3758 143.196 77.9485 145.124 85.4375C145.958 88.6739 146.182 92.0807 145.719 95.4679C145.432 97.5707 144.88 99.6656 144.046 101.708L136.856 119.282C136.02 121.324 133.917 122.54 131.74 122.24L116.354 120.122L129.021 132.053C130.329 133.283 130.847 135.139 130.371 136.874C129.896 138.609 128.502 139.936 126.754 140.322C125.888 140.512 108.117 144.251 89.1987 135.959C86.0587 134.581 82.8856 132.872 79.7534 130.761C55.3469 114.309 54.6062 87.554 64.6967 68.3351C75.1964 48.3448 99.8486 32.1842 129.171 43.9395C145.876 50.6336 156.349 60.9283 160.228 74.5025C163.561 86.1678 161.407 98.2834 157.881 108.29Z" fill="#525252"/>
<path d="M122.796 46.9778L116.237 67.6716L125.429 70.6111L131.987 49.9174L122.796 46.9778Z" fill="#525252"/>
<path d="M143.849 85.1654L141.849 94.6444L154.286 97.2932L156.287 87.8142L143.849 85.1654Z" fill="#525252"/>
<path d="M51.6611 185.424C50.4975 184.915 49.5815 183.964 49.1098 182.779C48.6323 181.577 48.6537 180.234 49.1702 179.045L55.1442 165.295C55.9316 163.484 57.7326 162.336 59.6973 162.389L66.7452 162.585L66.4782 172.271L62.6833 172.165L59.9623 178.429L77.6484 187.966L81.7376 176.997L79.2135 173.806L86.7663 167.778L91.3155 173.53C92.5395 175.079 92.7052 177.217 91.7345 178.934L83.9226 196.496C82.7141 198.634 80.1043 199.525 77.8492 198.57L51.7138 185.446C51.6962 185.438 51.6787 185.43 51.6611 185.422V185.424Z" fill="#525252"/>
</svg>
