<svg width="222" height="222" viewBox="0 0 222 222" fill="none" xmlns="http://www.w3.org/2000/svg">
<path d="M187.212 180.586H41.4488C39.2383 180.586 37.3705 178.947 37.0807 176.757L26.7899 98.6749C26.6235 97.418 27.0092 96.1492 27.8452 95.1957C28.6813 94.2422 29.8893 93.694 31.158 93.694H199.231C200.518 93.694 201.737 94.2559 202.575 95.231C203.411 96.206 203.781 97.4982 203.586 98.7689L191.566 176.849C191.235 178.996 189.387 180.584 187.212 180.584V180.586ZM45.3118 171.776H183.431L194.094 102.507H36.182L45.3118 171.776Z" fill="#FF5A5F"/>
<path d="M166.928 59.7926L160.719 66.0432L196.123 101.213L202.332 94.9623L166.928 59.7926Z" fill="#FF5A5F"/>
<path d="M59.7388 63.9252L28.0791 94.9503L34.2458 101.243L65.9055 70.218L59.7388 63.9252Z" fill="#FF5A5F"/>
<path d="M163.83 102.436H60.1295C58.943 102.436 57.8113 101.939 57.0086 101.064C56.2059 100.188 55.8084 99.0195 55.9102 97.837L62.3557 23.307C62.4536 22.1753 63.0018 21.1318 63.877 20.4073C64.7521 19.6849 65.8819 19.3422 67.0096 19.4597L164.265 29.541C166.423 29.7642 168.063 31.5831 168.063 33.7525V98.2011C168.063 100.539 166.168 102.434 163.83 102.434V102.436ZM64.7443 93.9681H159.595V37.5704L70.4203 28.3271L64.7443 93.9662V93.9681Z" fill="#FF5A5F"/>
<path d="M137.612 85.5256C136.772 85.5256 135.967 85.1653 135.407 84.529L114.177 60.4173L93.0945 65.7742C92.1978 66.0013 91.2462 65.7937 90.5257 65.2122L63.2383 43.1838L66.927 38.614L93.071 59.7203L114.471 54.2832C115.54 54.011 116.67 54.3615 117.398 55.1897L138.843 79.5461L163.597 77.5882L164.061 83.4443L137.843 85.5178C137.764 85.5236 137.688 85.5275 137.612 85.5275V85.5256Z" fill="#FF5A5F"/>
<path d="M162.283 47.2093L126.606 69.3556L129.704 74.346L165.381 52.1997L162.283 47.2093Z" fill="#FF5A5F"/>
<path d="M78.3578 98.7376L72.623 97.4669C72.7836 96.7425 76.6818 79.7223 89.1831 77.6195C93.8155 76.8403 97.931 77.8369 101.083 80.5035C105.256 84.0336 107.462 90.1188 107.462 98.1013H101.588C101.588 91.9886 100.061 87.3327 97.2908 84.9891C95.4739 83.4521 93.0754 82.9235 90.1581 83.413C86.7024 83.9945 83.697 86.6298 81.2242 91.2486C79.2016 95.0273 78.3656 98.7023 78.3578 98.7395V98.7376Z" fill="#FF5A5F"/>
<path d="M89.468 62.4839L86.7676 80.0693L92.5733 80.9608L95.2736 63.3754L89.468 62.4839Z" fill="#FF5A5F"/>
</svg>
