<svg width="221" height="222" viewBox="0 0 221 222" fill="none" xmlns="http://www.w3.org/2000/svg">
<path d="M186.368 180.586H41.2615C39.061 180.586 37.2016 178.947 36.9131 176.757L26.6687 98.6749C26.503 97.418 26.887 96.1492 27.7192 95.1957C28.5515 94.2422 29.7541 93.694 31.0171 93.694H198.333C199.614 93.694 200.828 94.2559 201.662 95.231C202.495 96.206 202.863 97.4982 202.668 98.7689L190.702 176.851C190.373 178.998 188.533 180.586 186.368 180.586ZM45.1071 171.776H182.604L193.219 102.507H36.0185L45.1071 171.776Z" fill="white"/>
<path d="M166.176 59.7926L159.994 66.0432L195.238 101.213L201.42 94.9623L166.176 59.7926Z" fill="white"/>
<path d="M59.4683 63.9232L27.9512 94.9484L34.0901 101.241L65.6072 70.216L59.4683 63.9232Z" fill="white"/>
<path d="M163.092 102.436H59.8585C58.6773 102.436 57.5508 101.939 56.7516 101.064C55.9525 100.19 55.5568 99.0195 55.6582 97.8369L62.0746 23.307C62.1721 22.1753 62.7178 21.1318 63.589 20.4073C64.4603 19.6829 65.5849 19.3422 66.7076 19.4597L163.525 29.541C165.673 29.7642 167.306 31.5831 167.306 33.7525V98.2011C167.306 100.539 165.419 102.434 163.092 102.434V102.436ZM64.4525 93.9681H158.876V37.5704L70.1029 28.3271L64.4525 93.9661V93.9681Z" fill="white"/>
<path d="M145.543 50.7256H74.8965V59.5362H145.543V50.7256Z" fill="white"/>
<path d="M145.543 67.8104H74.8965V76.621H145.543V67.8104Z" fill="white"/>
</svg>
