<svg width="163" height="163" viewBox="0 0 163 163" fill="none" xmlns="http://www.w3.org/2000/svg">
<path d="M55.5269 99.4121L17.3193 114.493L14.3296 135.574C24.5393 134.264 34.8035 133.641 45.0598 133.707C63.83 133.927 82.4606 136.569 100.552 141.577C110.398 144.362 120.059 147.811 129.477 151.904L132.467 130.823L98.516 104.786" stroke="white" stroke-width="5" stroke-linecap="round" stroke-linejoin="round"/>
<path d="M45.3941 135.609C43.5192 119.336 43.7029 102.735 45.9382 86.2961C45.9382 86.2961 54.9376 33.8388 91.3697 24.4052C121.004 46.3879 109.512 99.0068 109.512 99.0068C105.293 115.056 99.0772 130.457 91.053 144.738C88.5795 149.574 85.6341 154.102 82.2733 158.235L48.3728 151.457C47.0483 146.277 46.0523 140.98 45.3941 135.609Z" stroke="white" stroke-width="5" stroke-linecap="round" stroke-linejoin="round"/>
<path d="M93.1415 85.978C100.066 85.978 105.68 80.3646 105.68 73.4391C105.68 66.5145 100.066 60.9011 93.1415 60.9011C86.216 60.9011 80.6035 66.5145 80.6035 73.4391C80.6035 80.3646 86.216 85.978 93.1415 85.978Z" stroke="white" stroke-width="5" stroke-linecap="round" stroke-linejoin="round"/>
<path d="M51.9453 50.1538L114.638 62.6923" stroke="white" stroke-width="5" stroke-linecap="round" stroke-linejoin="round"/>
</svg>
